<svg width="89" height="100" viewBox="0 0 89 100" fill="none" xmlns="http://www.w3.org/2000/svg">
<g clip-path="url(#clip0_790_403)">
<path d="M88.7304 29.3208C88.7297 27.6439 88.371 26.1621 87.6458 24.8903C86.9333 23.6398 85.8664 22.5916 84.4353 21.7629C72.6222 14.9514 60.7977 8.16076 48.9885 1.34236C45.8048 -0.495653 42.7179 -0.428645 39.5578 1.43575C34.8559 4.20873 11.3148 17.6959 4.29992 21.759C1.41097 23.4314 0.00520781 25.9909 0.00451344 29.3176C0 43.0159 0.00451344 56.7138 0 70.4125C0.000694375 72.0526 0.344063 73.5055 1.0374 74.7582C1.75017 76.0466 2.83201 77.1236 4.2961 77.9711C11.3114 82.0342 34.8555 95.5203 39.5565 98.294C42.7179 100.159 45.8048 100.226 48.9895 98.3874C60.7991 91.5687 72.6243 84.7784 84.4391 77.9669C85.9032 77.1198 86.985 76.0421 87.6978 74.7547C88.3901 73.5021 88.7342 72.0491 88.7349 70.4086C88.7349 70.4086 88.7349 43.0194 88.7304 29.3208Z" fill="#5C8DBC"/>
<path d="M44.5029 49.7317L1.03711 74.7584C1.74989 76.0468 2.83172 77.1237 4.29581 77.9712C11.3111 82.0344 34.8553 95.5205 39.5562 98.2942C42.7177 100.16 45.8046 100.226 48.9893 98.3876C60.7989 91.5688 72.6241 84.7785 84.4389 77.9671C85.903 77.1199 86.9848 76.0422 87.6976 74.7549L44.5029 49.7317Z" fill="#1A4674"/>
<path d="M31.6289 57.1448C34.1582 61.5603 38.9129 64.5384 44.3672 64.5384C49.8552 64.5384 54.637 61.5224 57.1534 57.0597L44.503 49.7317L31.6289 57.1448Z" fill="#1A4674"/>
<path d="M88.7301 29.3211C88.7294 27.6442 88.3708 26.1624 87.6455 24.8906L44.5029 49.7319L87.6976 74.7551C88.3899 73.5025 88.7339 72.0495 88.7346 70.409C88.7346 70.409 88.7346 43.0197 88.7301 29.3211Z" fill="#1B598E"/>
<path d="M86.3552 51.5204H82.9799V54.8964H79.6038V51.5204H76.2288V48.1454H79.6038V44.77H82.9799V48.1454H86.3552V51.5204ZM74.0388 51.5204H70.6638V54.8964H67.2884V51.5204H63.9131V48.1454H67.2884V44.77H70.6638V48.1454H74.0388V51.5204Z" fill="white"/>
<path d="M57.1542 57.0599C54.6378 61.5227 49.8559 64.5387 44.3679 64.5387C38.9136 64.5387 34.1589 61.5605 31.6296 57.145C30.359 54.9293 29.6918 52.4192 29.6944 49.8651C29.6944 41.7614 36.2642 35.192 44.3679 35.192C49.7872 35.192 54.5169 38.133 57.0587 42.5034L69.8842 35.118C64.7864 26.3182 55.2689 20.3979 44.3679 20.3979C28.0932 20.3979 14.9004 33.5911 14.9004 49.8651C14.9004 55.2042 16.3207 60.211 18.8031 64.5296C23.888 73.376 33.4326 79.3327 44.3679 79.3327C55.3235 79.3327 64.8829 73.352 69.9605 64.4797L57.1542 57.0599Z" fill="white"/>
</g>
<defs>
<clipPath id="clip0_790_403">
<rect width="88.7349" height="99.7306" fill="white"/>
</clipPath>
</defs>
</svg>
