<svg width="100" height="100" viewBox="0 0 100 100" fill="none" xmlns="http://www.w3.org/2000/svg">
<path d="M81.1132 40.286C78.97 33.5657 74.7572 27.6949 69.0769 23.5128C63.3966 19.3307 56.5397 17.0514 49.4861 17.0005C43.5225 16.9663 37.6623 18.5577 32.5352 21.6036C27.408 24.6496 23.2077 29.035 20.3855 34.2886C15.1986 35.2181 10.4438 37.7788 6.81302 41.5978C3.18224 45.4169 0.865056 50.295 0.198717 55.5222C-0.467622 60.7494 0.551666 66.0529 3.10823 70.6606C5.66478 75.2684 9.62518 78.9401 14.413 81.1411L15.0343 81.4228H15.0757V74.3816C11.7912 72.3655 9.21997 69.3721 7.72227 65.8212C6.22458 62.2702 5.87551 58.3396 6.724 54.5803C7.5725 50.821 9.57602 47.4214 12.4538 44.858C15.3315 42.2946 18.9392 40.6959 22.7712 40.286L24.5108 40.1037L25.2729 38.5381C27.4367 33.9523 30.8648 30.0796 35.154 27.3751C39.4433 24.6707 44.4155 23.2469 49.4861 23.2713C55.528 23.3139 61.3823 25.3754 66.1179 29.1278C70.8534 32.8803 74.1985 38.1083 75.6211 43.9805L76.2175 46.3496H78.7027C82.7088 46.4318 86.524 48.0772 89.3333 50.9345C92.1426 53.7918 93.7232 57.6343 93.7375 61.6413C93.7375 67.4813 90.3661 72.261 84.6255 74.6798V81.3565L85.0397 81.2239C94.2677 78.2004 100 70.6954 100 61.6413C99.962 56.4009 98.0285 51.3514 94.5567 47.4259C91.085 43.5004 86.3096 40.9642 81.1132 40.286Z" fill="#3448C5"/>
<path d="M37.3417 80.6113L38.7168 81.9864C38.7539 82.0246 38.7791 82.0728 38.7892 82.1251C38.7993 82.1774 38.7939 82.2315 38.7736 82.2808C38.7534 82.3301 38.7192 82.3724 38.6753 82.4025C38.6313 82.4326 38.5795 82.4492 38.5262 82.4503H27.6746C26.3564 82.4503 25.0922 81.9266 24.1601 80.9945C23.228 80.0624 22.7044 78.7982 22.7044 77.4801V56.4064C22.7044 56.3339 22.6756 56.2643 22.6243 56.2131C22.5731 56.1618 22.5035 56.133 22.431 56.133H20.1116C20.0576 56.1336 20.0047 56.1181 19.9595 56.0886C19.9143 56.0592 19.8788 56.017 19.8576 55.9673C19.8363 55.9177 19.8302 55.8629 19.84 55.8099C19.8499 55.7568 19.8752 55.7078 19.9128 55.6691L29.1243 46.4577C29.1497 46.4319 29.18 46.4114 29.2134 46.3974C29.2468 46.3834 29.2827 46.3762 29.3189 46.3762C29.3551 46.3762 29.391 46.3834 29.4244 46.3974C29.4578 46.4114 29.4882 46.4319 29.5136 46.4577L38.7168 55.6691C38.7539 55.7073 38.7791 55.7555 38.7892 55.8078C38.7993 55.8602 38.7939 55.9143 38.7736 55.9636C38.7534 56.0128 38.7192 56.0551 38.6753 56.0852C38.6313 56.1153 38.5795 56.1319 38.5262 56.133H36.1737C36.1004 56.133 36.03 56.1615 35.9774 56.2126C35.9248 56.2636 35.8942 56.3331 35.892 56.4064V77.1156C35.8954 78.4264 36.4164 79.6828 37.3417 80.6113ZM57.6947 80.6113L59.0781 81.9864C59.1157 82.0251 59.141 82.0741 59.1508 82.1271C59.1607 82.1802 59.1546 82.235 59.1333 82.2846C59.112 82.3342 59.0766 82.3764 59.0314 82.4059C58.9861 82.4354 58.9332 82.4508 58.8792 82.4503H48.0525C46.7343 82.4503 45.4701 81.9266 44.538 80.9945C43.6059 80.0624 43.0823 78.7982 43.0823 77.4801V61.7328C43.0823 61.6595 43.0538 61.5891 43.0027 61.5365C42.9517 61.4839 42.8821 61.4533 42.8089 61.4511H40.4646C40.4114 61.4501 40.3596 61.4335 40.3156 61.4034C40.2716 61.3733 40.2374 61.331 40.2172 61.2817C40.197 61.2324 40.1916 61.1783 40.2017 61.126C40.2118 61.0737 40.2369 61.0254 40.2741 60.9872L49.4773 51.7924C49.5027 51.7666 49.533 51.7461 49.5664 51.7321C49.5998 51.7181 49.6357 51.7109 49.6719 51.7109C49.7082 51.7109 49.744 51.7181 49.7774 51.7321C49.8109 51.7461 49.8412 51.7666 49.8666 51.7924L59.0781 60.9707C59.1157 61.0094 59.141 61.0584 59.1508 61.1114C59.1607 61.1645 59.1546 61.2193 59.1333 61.2689C59.112 61.3185 59.0766 61.3607 59.0314 61.3902C58.9861 61.4197 58.9332 61.4351 58.8792 61.4346H56.5267C56.4534 61.4367 56.3839 61.4673 56.3329 61.5199C56.2818 61.5725 56.2533 61.6429 56.2533 61.7162V77.1156C56.2545 78.4252 56.7724 79.6815 57.6947 80.6113ZM78.056 80.6113L79.4311 81.9864C79.4682 82.0246 79.4934 82.0728 79.5035 82.1251C79.5136 82.1774 79.5082 82.2315 79.488 82.2808C79.4677 82.3301 79.4335 82.3724 79.3896 82.4025C79.3456 82.4326 79.2938 82.4492 79.2405 82.4503H68.3806C67.0625 82.4503 65.7983 81.9266 64.8662 80.9945C63.9341 80.0624 63.4104 78.7982 63.4104 77.4801V67.0178C63.4104 66.9453 63.3816 66.8757 63.3304 66.8245C63.2791 66.7732 63.2096 66.7444 63.1371 66.7444H60.8176C60.7626 66.745 60.7088 66.729 60.663 66.6985C60.6173 66.668 60.5818 66.6243 60.5612 66.5734C60.5406 66.5224 60.5359 66.4663 60.5477 66.4126C60.5594 66.3589 60.5871 66.31 60.6271 66.2722L69.8386 57.0691C69.8633 57.0435 69.8929 57.0232 69.9256 57.0093C69.9583 56.9954 69.9935 56.9883 70.0291 56.9883C70.0646 56.9883 70.0998 56.9954 70.1326 57.0093C70.1653 57.0232 70.1949 57.0435 70.2196 57.0691L79.4311 66.2722C79.4711 66.31 79.4987 66.3589 79.5105 66.4126C79.5223 66.4663 79.5175 66.5224 79.497 66.5734C79.4764 66.6243 79.4409 66.668 79.3952 66.6985C79.3494 66.729 79.2955 66.745 79.2405 66.7444H76.8797C76.8072 66.7444 76.7377 66.7732 76.6864 66.8245C76.6351 66.8757 76.6063 66.9453 76.6063 67.0178V77.1156C76.6097 78.4264 77.1307 79.6828 78.056 80.6113Z" fill="#3448C5"/>
</svg>
