<svg width="89" height="100" viewBox="0 0 89 100" fill="none" xmlns="http://www.w3.org/2000/svg">
<g clip-path="url(#clip0_790_520)">
<path d="M88.1749 0L80.142 89.9895L44.0335 100L8.02445 90.0037L0 0H88.1749Z" fill="#264DE4"/>
<path d="M73.2653 84.2593L80.13 7.35913H44.0879V92.3484L73.2653 84.2593Z" fill="#2965F1"/>
<path d="M18.3955 40.7402L19.3849 51.7787H44.0871V40.7402H18.3955Z" fill="#EBEBEB"/>
<path d="M44.0877 18.3977H44.0496H16.4082L17.4117 29.4364H44.0877V18.3977Z" fill="#EBEBEB"/>
<path d="M44.0879 80.8931V69.4083L44.0395 69.4212L31.7458 66.1016L30.9599 57.2979H24.9861H19.8789L21.4254 74.63L44.0371 80.9072L44.0879 80.8931Z" fill="#EBEBEB"/>
<path d="M57.6416 51.7785L56.3603 66.0947L44.0488 69.4177V80.9019L66.6785 74.6301L66.8445 72.7652L69.4385 43.7042L69.7078 40.7401L71.7006 18.3977H44.0488V29.4364H59.6033L58.5989 40.7401H44.0488V51.7785H57.6416Z" fill="white"/>
</g>
<defs>
<clipPath id="clip0_790_520">
<rect width="88.1749" height="100" fill="white"/>
</clipPath>
</defs>
</svg>
