<svg width="106" height="61" viewBox="0 0 106 61" fill="none" xmlns="http://www.w3.org/2000/svg">
<path d="M106 59.3549C104.457 59.9335 102.754 59.9319 101.212 59.3506C99.6701 58.7692 98.3962 57.6481 97.6307 56.1991L82.3948 35.3036L80.1856 32.3848L62.5051 56.23C61.7845 57.6167 60.5795 58.6959 59.1151 59.2659C57.6508 59.8359 56.0272 59.8578 54.5478 59.3274L77.3254 29.0229L56.1337 1.64073C59.2779 0.514395 62.7821 1.73688 64.5308 4.55957L80.3207 25.7126L96.204 4.64198C96.93 3.279 98.1358 2.22818 99.5921 1.68937C101.048 1.15056 102.654 1.16136 104.102 1.71971L95.8786 12.54L84.7391 26.9179C84.4299 27.1917 84.1825 27.5272 84.0131 27.9024C83.8438 28.2776 83.7562 28.684 83.7562 29.095C83.7562 29.5061 83.8438 29.9125 84.0131 30.2877C84.1825 30.6629 84.4299 30.9984 84.7391 31.2722L105.955 59.3549H106ZM0.00692531 28.6452L1.86293 19.5556C6.96002 1.58235 27.7362 -5.89676 42.0302 5.23606C50.3995 11.7537 52.4875 20.9875 52.0789 31.3923H4.92741C4.16562 49.9768 17.6874 61.1989 34.9836 55.4711C40.6832 53.4107 44.9735 48.7131 46.3863 42.8754C47.3004 39.9566 48.8101 39.4552 51.5734 40.3C51.1125 43.858 49.8442 47.2661 47.8638 50.2679C45.8834 53.2698 43.2424 55.7872 40.1396 57.6311C35.0132 60.4113 29.1317 61.5129 23.336 60.7783C17.5403 60.0438 12.1272 57.5107 7.8707 53.5412C3.66007 48.847 1.11845 42.9132 0.623285 36.6463C0.623285 35.6161 0.277016 34.6546 0.0346269 33.7274C0.0115423 31.9944 0 30.3004 0 28.6452H0.00692531ZM4.98628 27.3884H47.6259C47.3593 13.917 38.7856 4.3604 27.3518 4.27112C14.623 4.09942 5.51607 13.4466 4.95512 27.33L4.98628 27.3884Z" fill="black"/>
</svg>
