<svg width="89" height="100" viewBox="0 0 89 100" fill="none" xmlns="http://www.w3.org/2000/svg">
<g clip-path="url(#clip0_790_950)">
<path d="M8.02139 90.034L0 0H88.1867L80.1653 89.9854L44.0204 100" fill="#E44D26"/>
<path d="M44.0928 92.344V7.39014H80.1404L73.2615 84.201" fill="#F16529"/>
<path d="M16.3828 18.4009H44.0931V29.4364H28.4878L29.5087 40.7392H44.0931V51.7504H19.3969L16.3828 18.4009ZM19.8831 57.2925H30.9672L31.745 66.116L44.0931 69.4218V80.9434L21.4387 74.6235" fill="#EBEBEB"/>
<path d="M71.7056 18.4009H44.0439V29.4364H70.6847L71.7056 18.4009ZM69.6881 40.7392H44.0439V51.7747H57.656L56.3677 66.116L44.0439 69.4218V80.8948L66.6497 74.6235" fill="white"/>
</g>
<defs>
<clipPath id="clip0_790_950">
<rect width="88.1867" height="100" fill="white"/>
</clipPath>
</defs>
</svg>
