<svg width="74" height="100" viewBox="0 0 74 100" fill="none" xmlns="http://www.w3.org/2000/svg">
<g clip-path="url(#clip0_790_1039)">
<path d="M23.7528 77.3356C23.7528 77.3356 19.9315 79.5578 26.4724 80.3097C34.3967 81.2137 38.4464 81.0842 47.1791 79.4313C47.1791 79.4313 49.4751 80.8708 52.6812 82.1179C33.1053 90.5077 8.37667 81.6317 23.7528 77.3356V77.3356ZM21.3606 66.3872C21.3606 66.3872 17.0746 69.5599 23.6204 70.2369C32.0853 71.1101 38.7701 71.1816 50.3376 68.9542C50.3376 68.9542 51.9376 70.5762 54.4534 71.4633C30.7847 78.3843 4.42219 72.0091 21.3606 66.3872" fill="#5382A1"/>
<path d="M41.5268 47.8154C46.3504 53.3687 40.2595 58.3661 40.2595 58.3661C40.2595 58.3661 52.5071 52.0435 46.8823 44.1259C41.629 36.7427 37.6001 33.0737 59.4099 20.425C59.4099 20.425 25.1759 28.975 41.5268 47.8151" fill="#E76F00"/>
<path d="M67.4175 85.4341C67.4175 85.4341 70.2454 87.764 64.303 89.5666C53.0036 92.9898 17.2732 94.0235 7.34731 89.703C3.77937 88.1511 10.4705 85.9969 12.5752 85.5447C14.7701 85.0687 16.0247 85.1576 16.0247 85.1576C12.0566 82.3621 -9.62323 90.6463 5.0125 93.0185C44.9258 99.4913 77.7704 90.104 67.4175 85.4341ZM25.5901 55.0437C25.5901 55.0437 7.41564 59.3607 19.1543 60.928C24.1105 61.5916 33.9909 61.4416 43.1944 60.6703C50.7159 60.0362 58.2685 58.687 58.2685 58.687C58.2685 58.687 55.6163 59.8228 53.6976 61.133C35.2414 65.9871 -0.412529 63.729 9.85179 58.7637C18.5324 54.5677 25.5904 55.0437 25.5904 55.0437H25.5901ZM58.1935 73.2677C76.9554 63.5185 68.2806 54.1496 62.2258 55.412C60.7417 55.7207 60.0801 55.9882 60.0801 55.9882C60.0801 55.9882 60.6311 55.1254 61.6833 54.7519C73.6613 50.5406 82.8735 67.1721 57.8165 73.7591C57.8165 73.7594 58.1069 73.4999 58.1935 73.2677Z" fill="#5382A1"/>
<path d="M46.8825 0.000289532C46.8825 0.000289532 57.2731 10.3946 37.0276 26.3772C20.793 39.1985 33.3256 46.5086 37.0209 54.8609C27.5444 46.3109 20.5898 38.7841 25.2557 31.7791C32.1035 21.4957 51.0747 16.5102 46.8825 0" fill="#E76F00"/>
<path d="M27.4336 99.6857C45.4425 100.839 73.0969 99.0462 73.7518 90.5249C73.7518 90.5249 72.4929 93.7555 58.8685 96.3208C43.4977 99.2132 24.54 98.8756 13.2959 97.0217C13.2962 97.0217 15.5977 98.9269 27.4339 99.6857" fill="#5382A1"/>
</g>
<defs>
<clipPath id="clip0_790_1039">
<rect width="73.752" height="100" fill="white"/>
</clipPath>
</defs>
</svg>
