<svg width="100" height="100" viewBox="0 0 100 100" fill="none" xmlns="http://www.w3.org/2000/svg">
<g clip-path="url(#clip0_790_1060)">
<path d="M99.6387 0H-0.361328V100H99.6387V0Z" fill="#F7DF1E"/>
<path d="M66.8132 78.1254C68.8275 81.4143 71.4481 83.8318 76.083 83.8318C79.9767 83.8318 82.464 81.8857 82.464 79.1969C82.464 75.9746 79.9084 74.8334 75.6227 72.9588L73.2735 71.9508C66.4926 69.0619 61.9878 65.4429 61.9878 57.7921C61.9878 50.7445 67.3576 45.3794 75.7497 45.3794C81.7243 45.3794 86.0195 47.4588 89.1148 52.9032L81.7973 57.6016C80.1862 54.7127 78.4481 53.5746 75.7497 53.5746C72.9973 53.5746 71.2529 55.3207 71.2529 57.6016C71.2529 60.4207 72.9989 61.5619 77.0307 63.308L79.3799 64.3143C87.364 67.7381 91.8719 71.2286 91.8719 79.0762C91.8719 87.5365 85.2259 92.1715 76.3005 92.1715C67.5735 92.1715 61.9354 88.0127 59.1767 82.5619L66.8132 78.1254ZM33.618 78.9397C35.0941 81.5588 36.437 83.773 39.6656 83.773C42.7529 83.773 44.7005 82.5651 44.7005 77.8683V45.9159H54.0973V77.9953C54.0973 87.7254 48.3926 92.154 40.0656 92.154C32.5418 92.154 28.1846 88.2603 25.9688 83.5707L33.618 78.9397Z" fill="black"/>
</g>
<defs>
<clipPath id="clip0_790_1060">
<rect width="100" height="100" fill="white"/>
</clipPath>
</defs>
</svg>
