<svg width="100" height="97" viewBox="0 0 100 97" fill="none" xmlns="http://www.w3.org/2000/svg">
<g clip-path="url(#clip0_790_1088)">
<path d="M91.2519 21.4986C90.6801 19.669 89.3079 18.1824 87.5926 17.2675L52.7145 0.571772C51.7996 0.114354 50.7704 0 49.8556 0C48.9408 0 47.9116 5.11204e-08 46.9967 0.228709L12.1186 17.0388C10.4033 17.8393 9.14542 19.3259 8.688 21.2699L0.111422 58.8925C-0.231641 60.8365 0.225777 62.7806 1.36932 64.3815L25.4981 94.228C26.8704 95.6003 28.8144 96.5151 30.7584 96.6295H69.1815C71.2399 96.8582 73.1839 95.9433 74.4418 94.228L98.5706 64.3815C99.7141 62.7806 100.172 60.8365 99.9428 58.8925L91.2519 21.4986Z" fill="white" stroke="white" stroke-width="5" stroke-miterlimit="10"/>
<path d="M91.2519 21.4986C90.6801 19.669 89.3079 18.1824 87.5926 17.2675L52.7145 0.571772C51.7996 0.114354 50.7704 0 49.8556 0C48.9408 0 47.9116 5.11204e-08 46.9967 0.228709L12.1186 17.0388C10.4033 17.8393 9.14542 19.3259 8.688 21.2699L0.111422 58.8925C-0.231641 60.8365 0.225777 62.7806 1.36932 64.3815L25.4981 94.228C26.8704 95.6003 28.8144 96.5151 30.7584 96.6295H69.1815C71.2399 96.8582 73.1839 95.9434 74.4418 94.228L98.5706 64.3815C99.7141 62.7806 100.172 60.8365 99.9428 58.8925L91.2519 21.4986Z" fill="#326DE6"/>
<path d="M85.8772 57.406C85.7629 57.406 85.6485 57.406 85.6485 57.2917C85.6485 57.1773 85.4198 57.1773 85.1911 57.1773C84.7337 57.063 84.2763 57.063 83.8188 57.063C83.5901 57.063 83.3614 57.063 83.1327 56.9486H83.0184C81.7605 56.8342 80.3882 56.6055 79.1303 56.2625C78.7872 56.1481 78.4442 55.805 78.3298 55.462L77.415 55.2333C77.8724 51.917 77.6437 48.4864 76.9576 45.1701C76.1571 41.8538 74.7848 38.6519 72.9552 35.793L73.6413 35.1069V34.9925C73.6413 34.6495 73.7556 34.1921 73.9844 33.9634C75.0135 33.0485 76.0427 32.3624 77.1863 31.6763C77.415 31.5619 77.6437 31.4476 77.8724 31.3332C78.3298 31.1045 78.6729 30.8758 79.1303 30.6471C79.2447 30.5327 79.359 30.5327 79.4734 30.4184C79.5877 30.304 79.4734 30.304 79.4734 30.1897C80.5026 29.3892 80.7313 28.0169 79.9308 26.9877C79.5877 26.5303 78.9016 26.1873 78.3298 26.1873C77.7581 26.1873 77.1863 26.416 76.7289 26.759L76.6145 26.8734C76.5002 26.9877 76.3858 27.1021 76.2714 27.1021C75.9284 27.4452 75.5853 27.7882 75.3566 28.1313C75.2423 28.36 75.0136 28.4743 74.8992 28.5887C74.0987 29.5035 73.0695 30.4184 72.0403 31.1045C71.8116 31.2189 71.5829 31.3332 71.3542 31.3332C71.2399 31.3332 71.0112 31.3332 70.8968 31.2189H70.7824L69.8676 31.7906C68.9528 30.8758 67.9236 29.961 67.0087 29.0461C62.7776 25.7298 57.5173 23.6715 52.1427 23.0997L52.0283 22.1849V22.2992C51.6853 22.0705 51.5709 21.7274 51.4565 21.3844C51.4565 20.1265 51.4565 18.8686 51.6853 17.4963V17.382C51.6853 17.1533 51.7996 16.9246 51.7996 16.6958C51.914 16.2384 51.914 15.781 52.0283 15.3236V14.6375C52.1427 13.4939 51.2278 12.3504 50.0843 12.236C49.3982 12.1217 48.712 12.4647 48.1403 13.0365C47.6828 13.4939 47.4541 14.0657 47.4541 14.6375V15.2092C47.4541 15.6667 47.5685 16.1241 47.6828 16.5815C47.7972 16.8102 47.7972 17.0389 47.7972 17.2676V17.382C48.0259 18.6399 48.0259 19.8978 48.0259 21.27C47.9116 21.6131 47.7972 21.9561 47.4541 22.1849V22.4136L47.3398 23.3284C46.0819 23.4428 44.824 23.6715 43.4517 23.9002C38.0771 25.0437 33.1598 27.9026 29.3861 31.905L28.7 31.4476H28.5857C28.4713 31.4476 28.357 31.5619 28.1282 31.5619C27.8995 31.5619 27.6708 31.4476 27.4421 31.3332C26.4129 30.5327 25.3837 29.6179 24.5833 28.7031C24.4689 28.4743 24.2402 28.36 24.1258 28.2456C23.7828 27.9026 23.5541 27.5595 23.211 27.2164C23.0966 27.1021 22.9823 27.1021 22.8679 26.9877C22.7536 26.8734 22.7536 26.8734 22.7536 26.8734C22.2962 26.5303 21.7244 26.3016 21.1526 26.3016C20.4665 26.3016 19.8947 26.5303 19.5517 27.1021C18.8655 28.1313 19.0942 29.5035 20.0091 30.304C20.1234 30.304 20.1234 30.4184 20.1234 30.4184C20.1234 30.4184 20.3521 30.6471 20.4665 30.6471C20.8096 30.8758 21.267 31.1045 21.7244 31.3332C21.9531 31.4476 22.1818 31.5619 22.4105 31.6763C23.5541 32.3624 24.6976 33.0485 25.6124 33.9634C25.8412 34.1921 26.0699 34.6495 25.9555 34.9925V34.8782L26.6416 35.5643C26.5273 35.793 26.4129 35.9074 26.2986 36.1361C22.7536 41.7395 21.267 48.372 22.2962 54.8902L21.3813 55.1189C21.3813 55.2333 21.267 55.2333 21.267 55.2333C21.1526 55.5763 20.8096 55.805 20.4665 56.0338C19.2086 56.3768 17.9507 56.6055 16.5784 56.7199C16.3497 56.7199 16.121 56.7199 15.8923 56.8342C15.4349 56.8342 14.9775 56.9486 14.5201 56.9486C14.4057 56.9486 14.2914 57.063 14.0627 57.063C13.9483 57.063 13.9483 57.063 13.8339 57.1773C12.576 57.406 11.7756 58.5496 12.0043 59.8075C12.233 60.8366 13.2622 61.5228 14.2914 61.4084C14.5201 61.4084 14.6344 61.4084 14.8631 61.2941C14.9775 61.2941 14.9775 61.2941 14.9775 61.1797C14.9775 61.0654 15.3206 61.1797 15.4349 61.1797C15.8923 61.0654 16.3497 60.8366 16.6928 60.7223C16.9215 60.6079 17.1502 60.4936 17.3789 60.4936H17.4933C18.7512 60.0362 19.8947 59.6931 21.267 59.4644H21.3813C21.7244 59.4644 22.0675 59.5787 22.2962 59.8075C22.4105 59.8075 22.4105 59.9218 22.4105 59.9218L23.4397 59.8075C25.155 65.0678 28.357 69.7563 32.8168 73.1869C33.846 73.9874 34.7608 74.6735 35.9043 75.2453L35.3326 76.0458C35.3326 76.1601 35.4469 76.1601 35.4469 76.1601C35.6756 76.5032 35.6756 76.9606 35.5613 77.3037C35.1039 78.4472 34.4177 79.5908 33.7316 80.62V80.7343C33.6173 80.963 33.5029 81.0774 33.2742 81.3061C33.0455 81.5348 32.8168 81.9922 32.4737 82.4496C32.3594 82.564 32.3594 82.6783 32.245 82.7927C32.245 82.7927 32.245 82.907 32.1306 82.907C31.5589 84.0506 32.0163 85.4228 33.0455 85.9946C33.2742 86.109 33.6173 86.2233 33.846 86.2233C34.7608 86.2233 35.5613 85.6516 36.0187 84.8511C36.0187 84.8511 36.0187 84.7367 36.1331 84.7367C36.1331 84.6224 36.2474 84.508 36.3618 84.3937C36.4761 83.9362 36.7048 83.5932 36.8192 83.1357L37.0479 82.4496C37.391 81.1917 37.9627 80.0482 38.5345 78.9046C38.7632 78.5616 39.1063 78.3329 39.4493 78.2185C39.5637 78.2185 39.5637 78.2185 39.5637 78.1042L40.0211 77.1893C43.223 78.4472 46.5393 79.019 49.9699 79.019C52.0283 79.019 54.0867 78.7903 56.1451 78.2185C57.403 77.9898 58.6609 77.5324 59.8044 77.1893L60.2618 77.9898C60.3762 77.9898 60.3762 77.9898 60.3762 78.1042C60.7192 78.2185 61.0623 78.4472 61.291 78.7903C61.8628 79.9338 62.4346 81.0774 62.7776 82.3353V82.4496L63.0063 83.1357C63.1207 83.5932 63.2351 84.0506 63.4638 84.3937C63.5781 84.508 63.5781 84.6224 63.6925 84.7367C63.6925 84.7367 63.6925 84.8511 63.8068 84.8511C64.2642 85.6516 65.0647 86.2233 65.9796 86.2233C66.3226 86.2233 66.5513 86.109 66.8944 85.9946C67.3518 85.7659 67.8092 85.3085 67.9236 84.7367C68.0379 84.1649 68.0379 83.5932 67.8092 83.0214C67.8092 82.907 67.6949 82.907 67.6949 82.907C67.6949 82.7927 67.5805 82.6783 67.4662 82.564C67.2375 82.1066 67.0087 81.7635 66.6657 81.4204C66.5513 81.1917 66.437 81.0774 66.2083 80.8487V80.62C65.4078 79.5908 64.836 78.4472 64.3786 77.3037C64.2642 76.9606 64.2642 76.5032 64.493 76.1601C64.493 76.0458 64.6073 76.0458 64.6073 76.0458L64.2642 75.1309C70.0963 71.586 74.5561 66.0969 76.6145 59.5787L77.5294 59.6931C77.6437 59.6931 77.6437 59.5787 77.6437 59.5787C77.8724 59.35 78.2155 59.2357 78.5585 59.2357H78.6729C79.9308 59.4644 81.1887 59.8075 82.3322 60.2649H82.4466C82.6753 60.3792 82.904 60.4936 83.1327 60.4936C83.5901 60.7223 83.9332 60.951 84.3906 61.0654C84.505 61.0654 84.6193 61.1797 84.848 61.1797C84.9624 61.1797 84.9624 61.1797 85.0767 61.2941C85.3055 61.4084 85.4198 61.4084 85.6485 61.4084C86.6777 61.4084 87.5925 60.7223 87.9356 59.8075C87.8212 58.5496 86.9064 57.6347 85.8772 57.406ZM52.8288 53.861L49.7412 55.3476L46.6537 53.861L45.8532 50.5448L48.0259 47.8002H51.4565L53.6293 50.5448L52.8288 53.861ZM71.4686 46.428C72.0403 48.8294 72.1547 51.2309 71.926 53.6323L61.0623 50.5448C60.0331 50.316 59.4614 49.2868 59.6901 48.2577C59.8044 47.9146 59.9188 47.6859 60.1475 47.4572L68.7241 39.6811C69.982 41.7395 70.8968 44.0265 71.4686 46.428ZM65.2934 35.45L55.9164 42.0825C55.1159 42.5399 53.9723 42.4256 53.4006 41.6251C53.1719 41.3964 53.0575 41.1677 53.0575 40.8246L52.3714 29.2748C57.403 29.8466 61.8628 32.0193 65.2934 35.45ZM44.5953 29.6179L46.8824 29.1605L46.3106 40.5959C46.3106 41.6251 45.3958 42.4256 44.3666 42.4256C44.0235 42.4256 43.7948 42.3112 43.4517 42.1969L33.9603 35.45C36.9335 32.5911 40.5929 30.5327 44.5953 29.6179ZM30.644 39.6811L39.1063 47.2285C39.9067 47.9146 40.0211 49.0581 39.335 49.8586C39.1063 50.2017 38.8776 50.316 38.4201 50.4304L27.3278 53.6323C26.9847 48.8294 28.1282 43.9122 30.644 39.6811ZM28.7 59.007L40.0211 57.063C40.9359 57.063 41.8508 57.6347 41.9651 58.5496C42.0795 58.8926 42.0795 59.35 41.8508 59.6931L37.5053 70.2137C33.5029 67.5836 30.301 63.5812 28.7 59.007ZM54.6585 73.1869C53.0575 73.53 51.4565 73.7587 49.7412 73.7587C47.3398 73.7587 44.824 73.3013 42.5369 72.6152L48.1403 62.4376C48.712 61.7515 49.6269 61.5228 50.4274 61.9802C50.7704 62.2089 50.9991 62.4376 51.3422 62.7807L56.8312 72.7295C56.1451 72.8439 55.4589 72.9582 54.6585 73.1869ZM68.6097 63.2381C66.8944 65.9826 64.4929 68.384 61.7484 70.0993L57.2886 59.35C57.0599 58.4352 57.5173 57.5204 58.3178 57.1773C58.6609 57.063 59.0039 56.9486 59.347 56.9486L70.7824 58.8926C70.2107 60.4936 69.5245 61.9802 68.6097 63.2381Z" fill="white"/>
</g>
<defs>
<clipPath id="clip0_790_1088">
<rect width="100" height="96.6641" fill="white"/>
</clipPath>
</defs>
</svg>
