<svg width="100" height="100" viewBox="0 0 100 100" fill="none" xmlns="http://www.w3.org/2000/svg">
<g clip-path="url(#clip0_1902_2)">
<path d="M50.1455 0.273071L52.8141 5.2852C53.414 6.21013 54.064 7.02882 54.8295 7.79126C57.074 10.0077 59.1661 12.3734 61.0916 14.872C65.6132 20.809 68.6629 27.4023 70.8409 34.533C72.1471 38.8889 72.8564 43.3574 72.9095 47.8758C73.1282 61.3841 68.4973 72.9833 59.1605 82.6232C57.6417 84.1519 56.001 85.5543 54.2546 86.8166C53.3296 86.8166 52.8922 86.1073 52.511 85.4542C51.8167 84.2432 51.3547 82.9132 51.1486 81.5326C50.8205 79.8984 50.6048 78.2641 50.7111 76.5768V75.8143C50.6361 75.6518 49.8205 0.657418 50.1455 0.273071V0.273071Z" fill="#599636"/>
<path d="M50.1455 0.107501C50.0361 -0.111232 49.9268 0.0543804 49.8174 0.160623C49.8705 1.25429 49.4893 2.22922 48.8925 3.1604C48.2363 4.08533 47.3676 4.79466 46.4958 5.5571C41.6524 9.75054 37.8401 14.8158 34.7872 20.481C30.725 28.1054 28.6314 36.2767 28.0377 44.8792C27.7659 47.9821 29.0189 58.9313 29.997 62.0904C32.6655 70.4773 37.4589 77.5049 43.6679 83.6045C45.1927 85.0731 46.8239 86.4355 48.5113 87.7448C49.0018 87.7448 49.055 87.3073 49.1675 86.9823C49.3825 86.287 49.5465 85.5768 49.658 84.8575L50.7517 76.6893L50.1455 0.107501Z" fill="#6CAC48"/>
<path d="M52.8136 90.1352C52.9229 88.8853 53.5229 87.8479 54.176 86.8136C53.5198 86.5417 53.0323 86.0011 52.6511 85.3981C52.3223 84.8271 52.0502 84.2253 51.8386 83.6013C51.0762 81.314 50.9137 78.9142 50.695 76.5769V75.1614C50.4231 75.3801 50.3669 77.23 50.3669 77.5049C50.2079 79.9753 49.88 82.4319 49.3857 84.8575C49.2232 85.8387 49.1138 86.8167 48.5107 87.6885C48.5107 87.7979 48.5107 87.9072 48.5639 88.0697C49.545 90.957 49.8138 93.8974 49.9794 96.894V97.9877C49.9794 99.2938 49.9263 99.0189 51.0106 99.4563C51.448 99.6188 51.9355 99.6751 52.373 100C52.7011 100 52.7542 99.7282 52.7542 99.5095L52.5917 97.7127V92.7006C52.5386 91.8257 52.7011 90.957 52.8104 90.1383L52.8136 90.1352Z" fill="#C2BFBF"/>
</g>
<defs>
<clipPath id="clip0_1902_2">
<rect width="100" height="100" fill="white"/>
</clipPath>
</defs>
</svg>
