<svg width="100" height="100" viewBox="0 0 100 100" fill="none" xmlns="http://www.w3.org/2000/svg">
<path d="M98.4716 59.9022C97.8902 58.1365 96.3673 56.9067 94.3978 56.6116C93.4691 56.4726 92.4055 56.5319 91.1469 56.792C88.9532 57.2459 87.3257 57.4187 86.138 57.4521C90.6212 49.8619 94.2667 41.2063 96.3654 33.0585C99.759 19.8837 97.9455 13.8818 95.8264 11.167C90.2183 3.98123 82.0361 0.120977 72.1652 0.00285975C66.8994 -0.0617057 62.2768 0.980837 59.8653 1.73056C57.62 1.33329 55.2059 1.11149 52.6728 1.07047C47.9244 0.99451 43.729 2.0325 40.1442 4.16582C38.1595 3.49281 34.9742 2.54408 31.2958 1.93869C22.6444 0.514446 15.6716 1.62421 10.5714 5.23722C4.3955 9.61172 1.53253 17.2122 2.06202 27.8276C2.23018 31.1979 4.1103 41.4524 7.0706 51.1775C8.77195 56.7673 10.5862 61.4092 12.4629 64.9755C15.1243 70.0325 17.9722 73.0105 21.1692 74.08C22.961 74.6786 26.2168 75.0978 29.6411 72.238C30.0751 72.7651 30.6542 73.2889 31.4227 73.7754C32.3987 74.3926 33.5922 74.8969 34.7841 75.1958C39.0795 76.2726 43.1029 76.0033 46.5356 74.494C46.5568 75.1062 46.573 75.6911 46.5867 76.1962C46.6094 77.0154 46.6321 77.8187 46.6621 78.57C46.8654 83.6494 47.2101 87.5989 48.2312 90.3623C48.2873 90.5142 48.3626 90.7459 48.4422 90.9916C48.9516 92.5556 49.8034 95.1739 51.9706 97.2244C54.2147 99.3487 56.9292 100 59.4153 100C60.6622 100 61.8518 99.8359 62.8953 99.6118C66.6146 98.8124 70.8388 97.5947 73.8945 93.2316C76.7836 89.107 78.188 82.8947 78.4422 73.1062C78.4751 72.8293 78.5054 72.565 78.5346 72.3132L78.5952 71.7959L79.2758 71.8559L79.4512 71.8677C83.2394 72.0409 87.8715 71.2353 90.7163 69.9102C92.9642 68.8642 100.168 65.0507 98.4716 59.9022Z" fill="black"/>
<path d="M91.9941 60.9033C80.7301 63.2333 79.9555 59.4092 79.9555 59.4092C91.8483 41.7133 96.8201 19.2509 92.53 13.7533C80.8251 -1.24298 60.5639 5.84936 60.2257 6.03318L60.117 6.05293C57.8914 5.58958 55.4011 5.31385 52.6018 5.26789C47.5053 5.18434 43.6391 6.60782 40.7053 8.83875C40.7053 8.83875 4.56116 -6.09261 6.24243 27.6175C6.59997 34.7888 16.4929 81.8803 28.2925 67.6565C32.6053 62.4551 36.7727 58.0575 36.7727 58.0575C38.8422 59.4361 41.32 60.1395 43.9174 59.887L44.1193 59.7153C44.0565 60.3609 44.0852 60.9925 44.2 61.7404C41.1602 65.146 42.0536 65.7438 35.977 66.9983C29.828 68.2691 33.4401 70.5312 35.7986 71.1229C38.6578 71.8396 45.2722 72.8551 49.7415 66.5813L49.5635 67.2972C50.7543 68.2539 51.5905 73.5194 51.4504 78.2931C51.3103 83.0664 51.2167 86.3436 52.1549 88.9035C53.0938 91.4633 54.0289 97.2229 62.0175 95.5066C68.6922 94.0721 72.1514 90.3551 72.6328 84.1545C72.974 79.7466 73.747 80.3983 73.7955 76.4571L74.4155 74.5916C75.1302 68.6162 74.5292 66.6884 78.6413 67.5851L79.6412 67.6732C82.6674 67.811 86.6291 67.1848 88.9542 66.1012C93.9605 63.7715 96.93 59.8813 91.9933 60.9033H91.9941Z" fill="#336791"/>
<path d="M42.8211 30.8245C41.806 30.6828 40.8868 30.8138 40.4217 31.167C40.1604 31.3657 40.0793 31.5958 40.0574 31.7542C39.999 32.1739 40.2922 32.638 40.4725 32.8772C40.9823 33.5548 41.7269 34.0204 42.4639 34.123C42.5707 34.1382 42.6772 34.145 42.7828 34.145C44.0119 34.145 45.1296 33.1853 45.228 32.4769C45.3511 31.5897 44.0668 30.9984 42.8211 30.8248V30.8245ZM76.448 30.8526C76.3511 30.1572 75.1171 29.9589 73.946 30.1222C72.7764 30.2855 71.6425 30.815 71.7371 31.5119C71.8129 32.0538 72.7889 32.979 73.9441 32.979C74.0418 32.979 74.1403 32.9726 74.2395 32.9585C75.0107 32.8514 75.5765 32.3603 75.8454 32.0774C76.2545 31.6459 76.4916 31.1651 76.448 30.8526Z" fill="white"/>
<path d="M95.7422 60.6388C95.3127 59.3365 93.9302 58.9176 91.6335 59.3931C84.8141 60.8044 82.3719 59.8268 81.5701 59.2347C86.8707 51.1374 91.2313 41.3493 93.5837 32.217C94.698 27.8911 95.3134 23.8736 95.3638 20.599C95.4195 17.005 94.8089 14.3639 93.55 12.7505C88.474 6.24643 81.0239 2.75761 72.0059 2.6619C65.8061 2.59202 60.568 4.18299 59.5526 4.63039C57.4142 4.09716 55.0829 3.76977 52.5449 3.72799C47.8909 3.65241 43.8678 4.76978 40.537 7.04743C39.0902 6.50735 35.3512 5.22022 30.7785 4.48151C22.8732 3.20539 16.5913 4.17236 12.1084 7.35696C6.75931 11.1572 4.28986 17.9503 4.76822 27.547C4.92919 30.7757 6.76385 40.7082 9.65902 50.2202C13.47 62.7399 17.6128 69.8273 21.9714 71.2853C22.4816 71.4558 23.0698 71.5751 23.7186 71.5751C25.3086 71.5751 27.258 70.8565 29.2863 68.4114C31.7601 65.4355 34.3191 62.5319 36.9601 59.7041C38.6736 60.6263 40.556 61.1413 42.4812 61.1929C42.4849 61.2434 42.4899 61.294 42.4944 61.3441C42.163 61.7404 41.8385 62.1424 41.521 62.55C40.1871 64.248 39.9094 64.6016 35.6155 65.4881C34.3941 65.741 31.1501 66.4114 31.1024 68.6917C31.0508 71.1831 34.9372 72.2295 35.38 72.3404C36.923 72.7278 38.4096 72.9188 39.8273 72.9188C43.275 72.9188 46.3092 71.7825 48.7339 69.5838C48.6593 78.4658 49.0286 87.2178 50.0921 89.8844C50.9633 92.0675 53.0911 97.4025 59.8124 97.4021C60.7987 97.4021 61.8842 97.287 63.0784 97.0303C70.0932 95.5225 73.1395 92.4135 74.3178 85.5592C74.9484 81.8961 76.0305 73.149 76.5395 68.4569C77.6137 68.7931 78.9965 68.9469 80.4914 68.9465C83.6093 68.9465 87.207 68.2822 89.4633 67.2321C91.9979 66.0517 96.5716 63.1553 95.7422 60.6388ZM79.037 28.9333C79.0139 30.3184 78.8238 31.5759 78.6223 32.8885C78.4053 34.3002 78.181 35.7598 78.1246 37.5315C78.0689 39.2558 78.2837 41.0485 78.4912 42.7822C78.9109 46.284 79.3415 49.889 77.6746 53.4462C77.3978 52.9542 77.1511 52.4457 76.9361 51.9236C76.7289 51.42 76.279 50.611 75.6559 49.4914C73.2323 45.1328 67.5567 34.9261 70.4621 30.7612C71.3275 29.5216 73.5239 28.247 79.037 28.9333ZM72.3543 5.46671C80.4346 5.64559 86.8264 8.67676 91.3517 14.4755C94.8226 18.9233 91.0006 39.1616 79.9362 56.6213C79.8249 56.4794 79.713 56.338 79.6006 56.1971L79.4605 56.0216C82.3196 51.2867 81.7606 46.6019 81.2629 42.4484C81.0584 40.7439 80.8652 39.1339 80.9145 37.6215C80.9652 36.0188 81.1766 34.6439 81.3811 33.3146C81.6322 31.6766 81.8879 29.9815 81.8174 27.9834C81.8701 27.7738 81.8913 27.5261 81.8636 27.2322C81.6837 25.3161 79.5021 19.5815 75.0556 14.3912C72.6233 11.5522 69.0763 8.3752 64.2332 6.23238C66.3163 5.79941 69.1649 5.39569 72.3543 5.46671ZM27.1399 66.6218C24.9052 69.316 23.3622 68.7995 22.8547 68.6301C19.5482 67.5242 15.7115 60.5161 12.3288 49.4032C9.40185 39.7875 7.69141 30.1182 7.55582 27.4069C7.12859 18.8318 9.20149 12.8557 13.7173 9.6441C21.0666 4.41809 33.1495 7.5461 38.0047 9.13252C37.935 9.20164 37.8623 9.26621 37.7934 9.33647C29.826 17.4049 30.015 31.19 30.0347 32.0328C30.0339 32.3579 30.0612 32.8182 30.0983 33.4514C30.2354 35.77 30.4907 40.0853 29.8089 44.9721C29.1757 49.5134 30.5717 53.9582 33.6385 57.1671C33.9532 57.4958 34.284 57.8086 34.6297 58.1044C33.2646 59.5704 30.2979 62.8124 27.1399 66.6218ZM35.6538 55.2305C33.1821 52.6441 32.0595 49.0466 32.5734 45.3595C33.293 40.1973 33.0275 35.7013 32.8848 33.2858C32.8647 32.9477 32.8469 32.6515 32.8367 32.4179C34.0006 31.383 39.3943 28.4851 43.2409 29.3689C44.9961 29.7719 46.0657 30.9705 46.5103 33.0321C48.8116 43.7055 46.8148 48.1541 45.2104 51.7291C44.8798 52.4656 44.5673 53.1617 44.3007 53.8818L44.0939 54.4386C43.5704 55.8461 43.0834 57.1549 42.7815 58.3976C40.1537 58.39 37.5975 57.2643 35.6538 55.2301V55.2305ZM36.0572 69.6248C35.2898 69.4326 34.5997 69.0988 34.1949 68.8219C34.5331 68.6624 35.1349 68.4452 36.1788 68.2294C41.2301 67.1869 42.0104 66.4509 43.714 64.2818C44.1045 63.7843 44.5472 63.2207 45.1604 62.534L45.1612 62.5332C46.0744 61.5078 46.4921 61.6817 47.2496 61.997C47.8636 62.2514 48.4616 63.0232 48.704 63.8724C48.8188 64.2735 48.9476 65.0346 48.526 65.6271C44.9673 70.6237 39.7814 70.5595 36.0572 69.6248ZM62.4936 94.2935C56.3139 95.6212 54.1258 92.4594 52.6839 88.8449C51.7533 86.5114 51.2958 75.9887 51.6204 64.368C51.6246 64.2135 51.6026 64.0642 51.5602 63.9237C51.5222 63.6462 51.4645 63.3718 51.3875 63.1026C50.9049 61.4117 49.7289 59.9973 48.3181 59.4109C47.7575 59.1781 46.7288 58.7508 45.4926 59.068C45.7562 57.9787 46.2134 56.7485 46.7091 55.4166L46.9171 54.8564C47.1511 54.2248 47.4451 53.5704 47.7556 52.8776C49.4346 49.1374 51.734 44.0143 49.2384 32.4407C48.3037 28.1057 45.182 25.9887 40.4499 26.4805C37.6131 26.7749 35.0175 27.9226 33.7229 28.5808C33.4445 28.7221 33.19 28.8588 32.9522 28.9918C33.3135 24.6241 34.6785 16.4615 39.7848 11.297C43 8.04591 47.2818 6.44013 52.4987 6.52672C62.778 6.69535 69.3698 11.9852 73.0899 16.3935C76.2956 20.1919 78.0314 24.0183 78.7242 26.0821C73.5145 25.5508 69.9712 26.582 68.1752 29.157C64.2676 34.7582 70.3129 45.6296 73.2183 50.8545C73.7512 51.8119 74.211 52.6395 74.3557 52.9912C75.3018 55.2905 76.5267 56.8256 77.4209 57.946C77.6951 58.2894 77.961 58.6225 78.1632 58.9134C76.5854 59.3695 73.7512 60.4235 74.0095 65.6916C73.8012 68.335 72.3199 80.7111 71.5673 85.0837C70.5738 90.8605 68.454 93.012 62.4936 94.2938V94.2935ZM88.288 64.6935C86.6745 65.4444 83.9744 66.0076 81.4095 66.1288C78.5765 66.2617 77.1342 65.8105 76.7948 65.5329C76.6357 62.2499 77.8542 61.907 79.1438 61.5439C79.3465 61.4869 79.5442 61.4311 79.7351 61.3642C79.8536 61.4611 79.9835 61.5572 80.1259 61.6513C82.403 63.1584 86.4643 63.3209 92.1982 62.1341L92.2611 62.1215C91.4877 62.8466 90.1643 63.8196 88.288 64.6935Z" fill="white"/>
</svg>
