<svg width="100" height="100" viewBox="0 0 100 100" fill="none" xmlns="http://www.w3.org/2000/svg">
<g clip-path="url(#clip0_790_3093)">
<path d="M89.5728 19.4394C83.5282 11.6121 75.2981 5.75313 65.9235 2.6035C56.5488 -0.546142 46.4507 -0.844958 36.9062 1.74484C27.3617 4.33463 18.7996 9.69671 12.3027 17.1529C5.80588 24.6091 1.66609 33.8245 0.406949 43.6336C-0.852194 53.4428 0.825867 63.405 5.2289 72.2603C9.63194 81.1157 16.5622 88.4665 25.1431 93.3829C33.7241 98.2994 43.5703 100.561 53.4365 99.8809C63.3027 99.2011 72.7457 95.6107 80.5713 89.5638C102.415 72.6827 106.446 41.2908 89.5712 19.4394H89.5728Z" fill="#FF6C37"/>
<path d="M66.8635 31.8582L45.781 53.108L39.8232 46.9831C60.5729 26.2332 62.6557 28.1082 66.865 31.8582H66.8635Z" fill="white"/>
<path d="M45.7808 53.689C45.5941 53.6844 45.4158 53.6103 45.2809 53.4812L39.2809 47.4812C39.1458 47.3414 39.0703 47.1546 39.0703 46.9601C39.0703 46.7657 39.1458 46.5789 39.2809 46.4391C59.7385 25.9814 62.5307 26.9392 67.3635 31.3142C67.4444 31.3789 67.5091 31.4617 67.5525 31.5558C67.5959 31.6499 67.6168 31.7528 67.6135 31.8564C67.6447 32.0595 67.5666 32.2673 67.4057 32.3986L46.323 53.4827C46.1752 53.6183 45.9814 53.6926 45.7808 53.6906V53.689ZM40.8637 46.9812L45.7808 51.8984L65.7807 31.8986C65.0901 31.0332 64.1048 30.4527 63.0131 30.2682C61.9215 30.0837 60.8001 30.3082 59.8635 30.8986C56.2386 32.5236 50.4058 37.4813 40.8637 46.9812Z" fill="#FF6C37"/>
<path d="M51.8232 58.9829L46.0732 53.108L67.156 32.2739C72.8231 37.816 64.406 47.0659 51.8232 58.9814V58.9829Z" fill="white"/>
<path d="M51.8229 59.7327C51.6384 59.718 51.4634 59.6453 51.3229 59.5249L45.4479 53.7749C45.3598 53.5613 45.3598 53.3214 45.4479 53.1078C45.3855 52.9324 45.3855 52.7409 45.4479 52.5656L66.5306 31.483C66.6772 31.3452 66.8708 31.2686 67.072 31.2686C67.2732 31.2686 67.4668 31.3452 67.6134 31.483C68.2961 32.1114 68.8355 32.8795 69.1949 33.735C69.5543 34.5905 69.7253 35.5133 69.6962 36.4408C69.6962 42.0657 63.279 49.1484 52.3635 59.4827C52.2177 59.627 52.0258 59.7155 51.8213 59.7327H51.8229ZM47.1557 53.1078L51.8635 57.814C60.1962 49.939 68.1556 41.8141 68.1962 36.3142C68.2415 35.1482 67.8561 34.0064 67.1134 33.1064L47.1557 53.1078Z" fill="#FF6C37"/>
<path d="M39.9889 47.108L44.1561 51.2751C44.1827 51.2986 44.204 51.3274 44.2186 51.3597C44.2332 51.3921 44.2407 51.4271 44.2407 51.4626C44.2407 51.4981 44.2332 51.5331 44.2186 51.5655C44.204 51.5978 44.1827 51.6266 44.1561 51.6501L35.364 53.5251C35.1865 53.5634 35.0014 53.5426 34.8368 53.466C34.6722 53.3894 34.5371 53.261 34.4522 53.1006C34.3673 52.9401 34.3371 52.7562 34.3663 52.5771C34.3955 52.3979 34.4825 52.2331 34.614 52.1079L39.7389 47.0251C39.7389 47.0251 39.9061 47.0251 39.9889 47.108Z" fill="white"/>
<path d="M35.1562 54.358C34.8784 54.3546 34.6062 54.2799 34.3655 54.1412C34.1247 54.0025 33.9236 53.8044 33.7812 53.5659C33.621 53.2637 33.5629 52.9177 33.6156 52.5798C33.6682 52.2418 33.8289 51.93 34.0734 51.6909L39.1562 46.5659C39.3395 46.4021 39.5767 46.3115 39.8226 46.3115C40.0684 46.3115 40.3057 46.4021 40.489 46.5659L44.6561 50.7331C44.903 50.9675 44.9998 51.3221 44.9061 51.6503C44.8123 51.9784 44.5374 52.2393 44.1983 52.3174L35.4062 54.1924L35.1562 54.358ZM39.8233 48.0253L35.1156 52.7331L42.9077 51.0659L39.8233 48.0253Z" fill="#FF6C37"/>
<path d="M78.0731 20.149C75.0575 17.2397 70.3199 17.1178 67.1574 19.8631C63.9949 22.6084 63.4542 27.3208 65.9168 30.7114C68.3793 34.102 73.0215 35.052 76.6153 32.8989L70.9481 27.2318L78.0731 20.149Z" fill="white"/>
<path d="M72.4475 34.8142C70.7149 34.792 69.0272 34.2605 67.5946 33.2858C66.1621 32.3111 65.048 30.9364 64.3913 29.333C63.735 27.7308 63.5628 25.9714 63.896 24.2724C64.2293 22.5733 65.0533 21.0093 66.2663 19.7737C67.9344 18.1362 70.1786 17.2187 72.5162 17.2188C74.8538 17.2188 77.0981 18.1362 78.7662 19.7737C78.9256 19.9081 79.0162 20.1065 79.0162 20.3159C79.0159 20.4189 78.9933 20.5206 78.9502 20.6142C78.9071 20.7077 78.8443 20.7909 78.7662 20.8581L72.0162 27.233L77.1412 32.2752C77.2243 32.3545 77.2866 32.4529 77.3229 32.5619C77.3591 32.6708 77.3681 32.787 77.3491 32.9002C77.3367 33.0094 77.3005 33.1146 77.243 33.2083C77.1855 33.302 77.1081 33.3819 77.0162 33.4424C75.6394 34.303 74.0566 34.7778 72.4334 34.8174L72.4475 34.8142ZM72.4475 18.6472C69.4788 18.6628 66.8225 20.4487 65.7084 23.1784C64.5944 25.908 65.2006 29.0502 67.2819 31.1471C68.3171 32.1883 69.6426 32.8926 71.0849 33.1678C72.5271 33.443 74.0188 33.2762 75.3647 32.6892L70.4475 27.7721C70.3693 27.7096 70.3062 27.6303 70.2629 27.5401C70.2195 27.4499 70.197 27.3511 70.197 27.251C70.197 27.1509 70.2195 27.0521 70.2629 26.9619C70.3062 26.8717 70.3693 26.7924 70.4475 26.7299L76.9475 20.1878C75.6554 19.1975 74.0754 18.656 72.4475 18.6456V18.6472Z" fill="#FF6C37"/>
<path d="M78.1981 20.2739L71.0732 27.3567L76.7403 33.0238C77.3107 32.6963 77.8417 32.3047 78.3231 31.8566C79.8084 30.2867 80.6256 28.2011 80.6023 26.04C80.5789 23.8789 79.7169 21.8114 78.1981 20.2739Z" fill="white"/>
<path d="M76.613 33.6488C76.5194 33.6539 76.4259 33.6378 76.3393 33.6019C76.2528 33.5659 76.1754 33.5109 76.113 33.441L70.4458 27.7738C70.3677 27.7113 70.3046 27.6321 70.2612 27.5418C70.2178 27.4516 70.1953 27.3528 70.1953 27.2528C70.1953 27.1527 70.2178 27.0539 70.2612 26.9637C70.3046 26.8735 70.3677 26.7942 70.4458 26.7317L77.5286 19.7739C77.597 19.6708 77.6899 19.5862 77.7989 19.5276C77.908 19.4691 78.0298 19.4385 78.1536 19.4385C78.2774 19.4385 78.3992 19.4691 78.5082 19.5276C78.6173 19.5862 78.7102 19.6708 78.7786 19.7739C79.6101 20.5886 80.2706 21.561 80.7216 22.6342C81.1726 23.7074 81.4048 24.8598 81.4048 26.0239C81.4048 27.1879 81.1726 28.3403 80.7216 29.4135C80.2706 30.4867 79.6101 31.4591 78.7786 32.2738C78.2881 32.7941 77.7269 33.2427 77.1114 33.6066C76.9565 33.6847 76.7773 33.6998 76.6114 33.6488H76.613ZM72.0302 27.2332L76.738 31.941C77.0618 31.714 77.3684 31.4633 77.6552 31.191C79.0391 29.8108 79.8186 27.9377 79.8223 25.9832C79.8255 24.2341 79.188 22.5444 78.0302 21.2333L72.0302 27.2332Z" fill="#FF6C37"/>
<path d="M67.7387 32.7332C67.1744 32.2032 66.4293 31.9082 65.6551 31.9082C64.881 31.9082 64.1359 32.2032 63.5715 32.7332L44.6982 51.5643L47.8232 54.7315L67.7809 37.2316C68.0852 36.9399 68.3267 36.589 68.4903 36.2004C68.6539 35.8119 68.7363 35.394 68.7324 34.9725C68.7284 34.5509 68.6382 34.1346 68.4673 33.7492C68.2964 33.3639 68.0485 33.0175 67.7387 32.7316V32.7332Z" fill="white"/>
<path d="M47.6561 55.4829C47.4693 55.4783 47.291 55.4042 47.1561 55.2751L43.9889 52.108C43.8538 51.9681 43.7783 51.7813 43.7783 51.5869C43.7783 51.3925 43.8538 51.2056 43.9889 51.0658L62.8637 32.2738C63.4074 31.7308 64.1017 31.3636 64.8565 31.22C65.6113 31.0763 66.3919 31.1627 67.097 31.468C67.8021 31.7734 68.3992 32.2835 68.8109 32.9323C69.2226 33.5811 69.4299 34.3386 69.4059 35.1066C69.3842 35.6278 69.2588 36.1396 69.0369 36.6118C68.815 37.084 68.5012 37.5072 68.1137 37.8565L48.1561 55.3564C48.0109 55.4591 47.8325 55.5037 47.6561 55.4814V55.4829ZM45.4483 51.5642L47.5311 53.6892L67.1137 36.6472C67.5981 36.2253 67.8871 35.6222 67.9059 34.98C67.9246 34.3378 67.6715 33.7097 67.1981 33.2722C66.7609 32.8368 66.169 32.5924 65.552 32.5924C64.935 32.5924 64.3431 32.8368 63.9059 33.2722L45.4483 51.5642Z" fill="#FF6C37"/>
<path d="M30.0736 73.0235C30.0203 73.0959 29.9915 73.1835 29.9915 73.2734C29.9915 73.3634 30.0203 73.451 30.0736 73.5234L30.9064 77.1484C30.9397 77.3617 30.9081 77.5802 30.8156 77.7752C30.723 77.9703 30.5739 78.133 30.3876 78.2422C30.202 78.3507 29.9867 78.3976 29.7727 78.376C29.5587 78.3544 29.3572 78.2654 29.197 78.1219L23.4893 72.6219L41.2812 54.6892H47.4484L51.6155 58.8564C45.1151 64.5398 37.8671 69.3064 30.0736 73.0235Z" fill="white"/>
<path d="M29.6985 79.1484C29.2266 79.1391 28.761 78.9453 28.4485 78.6062L22.9908 73.1485C22.9126 73.086 22.8495 73.0067 22.8061 72.9165C22.7628 72.8263 22.7402 72.7275 22.7402 72.6274C22.7402 72.5273 22.7628 72.4285 22.8061 72.3383C22.8495 72.2481 22.9126 72.1688 22.9908 72.1063L40.9062 54.1487C41.0065 54.042 41.1376 53.9694 41.2812 53.9408H47.489C47.6507 53.8837 47.8272 53.8837 47.989 53.9408L52.1561 58.108C52.2354 58.1811 52.2957 58.2723 52.3319 58.3738C52.3681 58.4753 52.3791 58.5841 52.3639 58.6908C52.3669 58.7943 52.3458 58.8971 52.3025 58.9912C52.2591 59.0852 52.1946 59.168 52.1139 59.233L51.7811 59.5252C45.2545 64.9662 38.074 69.5711 30.4063 73.2329L31.1985 76.6078C31.2597 76.8682 31.2621 77.1389 31.2054 77.4003C31.1486 77.6617 31.0343 77.9071 30.8707 78.1186C30.707 78.3302 30.4982 78.5025 30.2595 78.6231C30.0207 78.7437 29.7581 78.8095 29.4907 78.8156L29.6985 79.1484ZM24.6158 72.6063L29.5313 77.5641C29.5771 77.6049 29.6364 77.6275 29.6977 77.6275C29.7591 77.6275 29.8183 77.6049 29.8641 77.5641C29.8948 77.5215 29.9113 77.4704 29.9113 77.418C29.9113 77.3655 29.8948 77.3144 29.8641 77.2719L29.0313 73.6469C28.9657 73.3868 28.9921 73.1119 29.106 72.869C29.2199 72.6261 29.4143 72.43 29.6563 72.3141C37.1179 68.7012 44.1133 64.1959 50.489 58.897L47.0718 55.4799H41.489L24.6158 72.6063Z" fill="#FF6C37"/>
<path d="M19.1983 76.8983L23.3654 72.7312L29.7825 79.1483L19.5748 78.4405C19.3996 78.4268 19.2331 78.358 19.0993 78.2441C18.9654 78.1301 18.8709 77.9768 18.8293 77.806C18.7878 77.6352 18.8012 77.4556 18.8677 77.2929C18.9343 77.1302 19.0505 76.9926 19.1998 76.8999L19.1983 76.8983Z" fill="white"/>
<path d="M29.9058 79.7733L19.7387 79.0654C19.1356 79.0092 18.6169 78.5967 18.4044 78.0451C18.1919 77.4936 18.3216 76.8389 18.7388 76.3983L22.9059 72.2311C23.0457 72.096 23.2326 72.0205 23.427 72.0205C23.6214 72.0205 23.8082 72.096 23.9481 72.2311L30.323 78.6061C30.4112 78.727 30.4588 78.8728 30.4588 79.0225C30.4588 79.1722 30.4112 79.318 30.323 79.4389C30.2266 79.5947 30.0792 79.7123 29.9058 79.7717V79.7733ZM19.7387 77.4405L28.0715 77.9826L23.4887 73.6905L19.7387 77.4405Z" fill="#FF6C37"/>
<path d="M48.0303 55.1924L39.6133 56.4846L44.4882 51.6519L48.0303 55.1924Z" fill="white"/>
<path d="M39.6143 57.2736C39.4744 57.2772 39.3365 57.2396 39.2179 57.1654C39.0992 57.0912 39.0051 56.9837 38.9471 56.8564C38.8584 56.7357 38.8105 56.5898 38.8105 56.44C38.8105 56.2902 38.8584 56.1443 38.9471 56.0236L43.7798 51.1485C43.9264 51.0108 44.12 50.9341 44.3212 50.9341C44.5224 50.9341 44.716 51.0108 44.8626 51.1485L48.4063 54.6892C48.4771 54.8014 48.5146 54.9315 48.5146 55.0642C48.5146 55.1969 48.4771 55.3269 48.4063 55.4392C48.3715 55.576 48.2981 55.6999 48.1947 55.7961C48.0914 55.8922 47.9625 55.9566 47.8235 55.9814L39.4908 57.2736H39.6143ZM44.4892 52.7314L41.7814 55.4392L46.4485 54.7314L44.4892 52.7314Z" fill="#FF6C37"/>
<path d="M48.0311 55.1892L42.1562 55.9392C41.999 55.9749 41.8345 55.9589 41.687 55.8938C41.5396 55.8286 41.417 55.7176 41.3376 55.5773C41.2582 55.437 41.226 55.2749 41.246 55.1149C41.266 54.9549 41.337 54.8056 41.4484 54.6892L44.4906 51.647L48.0311 55.1892Z" fill="white"/>
<path d="M41.9887 56.7328C41.7164 56.7302 41.4496 56.6556 41.2155 56.5164C40.9814 56.3773 40.7883 56.1786 40.6559 55.9407C40.4968 55.6554 40.4351 55.3261 40.4802 55.0026C40.5253 54.6792 40.6748 54.3793 40.9059 54.1485L43.948 51.1063C44.0947 50.9686 44.2883 50.8919 44.4894 50.8919C44.6906 50.8919 44.8842 50.9686 45.0308 51.1063L48.573 54.6485C48.6783 54.7483 48.7525 54.8765 48.7864 55.0176C48.8203 55.1587 48.8126 55.3066 48.7641 55.4434C48.7156 55.5802 48.6285 55.6999 48.5134 55.7882C48.3982 55.8765 48.2599 55.9294 48.1152 55.9407L42.2824 56.6907L41.9887 56.7328ZM41.9887 55.1907L46.4058 54.6485L44.448 52.6907L41.9481 55.1907H41.9887ZM78.2384 25.0659C78.1599 24.9344 78.0358 24.8363 77.8898 24.7902C77.7438 24.7441 77.5859 24.7533 77.4462 24.8159C77.3772 24.8508 77.316 24.8992 77.266 24.9583C77.2161 25.0173 77.1786 25.0858 77.1556 25.1596C77.1092 25.3086 77.1238 25.4698 77.1962 25.608C77.4884 26.2221 77.4071 26.9487 76.9884 27.483C76.9364 27.5345 76.8956 27.5962 76.8687 27.6643C76.8418 27.7323 76.8294 27.8052 76.8321 27.8783C76.8336 28.0249 76.8893 28.1657 76.9884 28.2737C77.0953 28.3159 77.2143 28.3159 77.3212 28.2737C77.4182 28.298 77.5201 28.2954 77.6157 28.2659C77.7113 28.2364 77.7969 28.1813 77.8634 28.1065C78.2065 27.6864 78.4237 27.1778 78.4901 26.6395C78.5565 26.1012 78.4692 25.5551 78.2384 25.0643V25.0659Z" fill="#FF6C37"/>
</g>
<defs>
<clipPath id="clip0_790_3093">
<rect width="100" height="99.9992" fill="white"/>
</clipPath>
</defs>
</svg>
