<svg width="100" height="100" viewBox="0 0 100 100" fill="none" xmlns="http://www.w3.org/2000/svg">
<path d="M49.6397 0C24.2535 0 25.8385 11.009 25.8385 11.009L25.8667 22.4146H50.0924V25.8389H16.2447C16.2447 25.8389 0 23.9966 0 49.6111C0 75.2264 14.1788 74.318 14.1788 74.318H22.6406V62.4315C22.6406 62.4315 22.1844 48.2528 36.593 48.2528H60.6205C60.6205 48.2528 74.1199 48.4709 74.1199 35.206V13.2734C74.1199 13.2734 76.1702 0 49.6397 0ZM36.2817 7.67007C36.8542 7.66955 37.4211 7.78193 37.9501 8.00076C38.4791 8.2196 38.9598 8.5406 39.3646 8.9454C39.7693 9.35019 40.0903 9.83084 40.3092 10.3598C40.528 10.8888 40.6404 11.4558 40.6399 12.0282C40.6404 12.6007 40.528 13.1677 40.3092 13.6967C40.0903 14.2256 39.7693 14.7063 39.3646 15.1111C38.9598 15.5159 38.4791 15.8369 37.9501 16.0557C37.4211 16.2746 36.8542 16.3869 36.2817 16.3864C35.7092 16.3869 35.1423 16.2746 34.6133 16.0557C34.0843 15.8369 33.6037 15.5159 33.1989 15.1111C32.7941 14.7063 32.4731 14.2256 32.2542 13.6967C32.0354 13.1677 31.923 12.6007 31.9235 12.0282C31.923 11.4558 32.0354 10.8888 32.2542 10.3598C32.4731 9.83084 32.7941 9.35019 33.1989 8.9454C33.6037 8.5406 34.0843 8.2196 34.6133 8.00076C35.1423 7.78193 35.7092 7.66955 36.2817 7.67007Z" fill="url(#paint0_linear_1904_16)"/>
<path d="M51.0046 99.3221C76.3909 99.3221 74.8058 88.3131 74.8058 88.3131L74.7776 76.9078H50.5516V73.4835H84.3993C84.3993 73.4835 100.644 75.3259 100.644 49.7105C100.644 24.0955 86.4652 25.004 86.4652 25.004H78.0034V36.8901C78.0034 36.8901 78.4595 51.0689 64.0509 51.0689H40.0234C40.0234 51.0689 26.524 50.8508 26.524 64.116V86.049C26.524 86.049 24.4742 99.3221 51.0042 99.3221H51.0046ZM64.3626 91.6528C63.7902 91.6533 63.2232 91.5409 62.6942 91.3221C62.1652 91.1033 61.6846 90.7823 61.2798 90.3775C60.875 89.9727 60.554 89.492 60.3351 88.963C60.1163 88.434 60.0039 87.8671 60.0044 87.2946C60.0039 86.7221 60.1162 86.1551 60.335 85.6261C60.5538 85.097 60.8748 84.6164 61.2796 84.2115C61.6844 83.8067 62.1651 83.4856 62.6941 83.2668C63.2231 83.0479 63.7901 82.9355 64.3626 82.9361C64.9351 82.9355 65.502 83.0479 66.031 83.2667C66.56 83.4856 67.0407 83.8066 67.4455 84.2114C67.8503 84.6162 68.1713 85.0968 68.3901 85.6258C68.6089 86.1548 68.7213 86.7218 68.7208 87.2942C68.7213 87.8667 68.6089 88.4336 68.3901 88.9626C68.1713 89.4916 67.8503 89.9723 67.4455 90.3771C67.0407 90.7819 66.56 91.1029 66.031 91.3217C65.502 91.5406 64.9351 91.6529 64.3626 91.6524V91.6528Z" fill="url(#paint1_linear_1904_16)"/>
<defs>
<linearGradient id="paint0_linear_1904_16" x1="9.60996" y1="8.94762" x2="59.1669" y2="58.0102" gradientUnits="userSpaceOnUse">
<stop stop-color="#387EB8"/>
<stop offset="1" stop-color="#366994"/>
</linearGradient>
<linearGradient id="paint1_linear_1904_16" x1="40.672" y1="40.2947" x2="93.8905" y2="90.6038" gradientUnits="userSpaceOnUse">
<stop stop-color="#FFE052"/>
<stop offset="1" stop-color="#FFC331"/>
</linearGradient>
</defs>
</svg>
