<svg width="101" height="100" viewBox="0 0 101 100" fill="none" xmlns="http://www.w3.org/2000/svg">
<path d="M49.8162 58.8163C54.6853 58.8163 58.6325 54.8691 58.6325 50.0001C58.6325 45.131 54.6853 41.1838 49.8162 41.1838C44.9472 41.1838 41 45.131 41 50.0001C41 54.8691 44.9472 58.8163 49.8162 58.8163Z" fill="#61DAFB"/>
<path d="M50.3066 68.0626C76.4333 68.0626 97.6132 59.9757 97.6132 50C97.6132 40.0244 76.4333 31.9375 50.3066 31.9375C24.1799 31.9375 3 40.0244 3 50C3 59.9757 24.1799 68.0626 50.3066 68.0626Z" stroke="#61DAFB" stroke-width="5"/>
<path d="M34.3681 59.0313C47.4315 81.6577 65.0248 95.9566 73.664 90.9687C82.3032 85.9809 78.7167 63.5951 65.6533 40.9687C52.5899 18.3423 34.9966 4.04343 26.3574 9.03126C17.7182 14.0191 21.3047 36.4049 34.3681 59.0313Z" stroke="#61DAFB" stroke-width="5"/>
<path d="M35.0615 40.9687C21.9981 63.5951 18.4116 85.9809 27.0508 90.9687C35.6899 95.9565 53.2833 81.6576 66.3467 59.0312C79.4101 36.4048 82.9966 14.0191 74.3574 9.03124C65.7182 4.04341 48.1248 18.3423 35.0615 40.9687Z" stroke="#61DAFB" stroke-width="5"/>
</svg>
