<svg width="100" height="55" viewBox="0 0 100 55" fill="none" xmlns="http://www.w3.org/2000/svg">
<g clip-path="url(#clip0_790_3296)">
<path d="M30.2807 36.34C25.3129 36.34 21.2635 32.2585 21.2635 27.255C21.2635 22.2514 25.3129 18.1699 30.2807 18.1699C35.2485 18.1699 39.2978 22.2514 39.2978 27.255C39.2978 32.255 35.2449 36.34 30.2807 36.34ZM8.62954 54.3779C3.66886 54.3671 -0.369727 50.2678 -0.355431 45.2642C-0.352598 42.8644 0.60149 40.5636 2.29775 38.866C3.994 37.1684 6.29406 36.2125 8.69387 36.2078C13.6581 36.2185 17.6967 40.3178 17.6788 45.325C17.6741 47.7239 16.7193 50.0232 15.0234 51.7199C13.3274 53.4165 11.0284 54.3722 8.62954 54.3779ZM90.6951 54.3779C88.2956 54.3826 85.9919 53.4364 84.2885 51.7464C82.5851 50.0564 81.6207 47.7602 81.6065 45.3607C81.5815 40.35 85.6022 36.2364 90.5593 36.2113C92.9576 36.2075 95.2599 37.1537 96.9624 38.8428C98.665 40.532 99.6293 42.8266 99.6444 45.2249C99.673 50.232 95.6487 54.3493 90.6951 54.3779Z" fill="black"/>
<path d="M74.1495 18.6988C71.6977 17.934 69.078 17.6159 66.5083 17.3371C62.534 16.9083 60.9508 15.3572 60.2789 11.3757C59.9 9.15273 59.3711 6.87254 58.4097 4.85324C56.5762 1.01122 52.2803 -0.71144 47.9665 0.271403C44.3211 1.10414 41.2939 4.73172 41.1259 8.4558C40.9329 12.7017 43.3632 16.3293 47.5376 17.5802C49.5212 18.177 51.6298 18.4737 53.6992 18.6273C57.4983 18.9025 58.7671 20.0355 59.7928 21.7653C60.4433 22.8589 61.0687 23.9347 61.0687 27.187C61.0687 30.4429 60.4361 31.5187 59.7928 32.6087C58.7671 34.3385 57.4983 35.4679 53.6992 35.7502C51.6263 35.9004 49.5176 36.2006 47.5376 36.7974C43.3632 38.0519 40.9329 41.6723 41.1259 45.9253C41.2939 49.6459 44.3246 53.2734 47.9665 54.1062C52.2803 55.0926 56.5762 53.3664 58.4097 49.5243C59.3746 47.5086 59.9 45.2249 60.2789 43.0018C60.9543 39.0204 62.5376 37.4729 66.5083 37.0405C69.0816 36.7617 71.6977 36.44 74.1495 35.6752C77.87 34.5137 80.1073 31.0433 80.1073 27.187C80.1073 23.3343 77.87 19.8675 74.1495 18.6988Z" fill="#F44250"/>
</g>
<defs>
<clipPath id="clip0_790_3296">
<rect width="100" height="54.3789" fill="white"/>
</clipPath>
</defs>
</svg>
