<svg width="100" height="86" viewBox="0 0 100 86" fill="none" xmlns="http://www.w3.org/2000/svg">
<g clip-path="url(#clip0_790_3304)">
<path d="M96.082 65.7651C90.7453 68.5467 63.1 79.9135 57.2145 82.9819C51.3289 86.0507 48.0594 86.021 43.4098 83.7983C38.7605 81.5757 9.34102 69.6921 4.04141 67.1589C1.39297 65.8932 0 64.8245 0 63.8151V53.7073C0 53.7073 38.3008 45.3694 44.484 43.151C50.6668 40.9327 52.8121 40.8526 58.0738 42.7799C63.3363 44.7081 94.7996 50.3846 100 52.2893L99.9977 62.2542C99.9984 63.2534 98.7984 64.3495 96.082 65.7651Z" fill="#912626"/>
<path d="M96.08 55.7173C90.7437 58.4978 63.0991 69.865 57.2136 72.9329C51.3284 76.0021 48.0589 75.972 43.4097 73.7493C38.7601 71.5282 9.34171 59.6427 4.04249 57.1111C-1.25673 54.5779 -1.36767 52.8345 3.8378 50.7962C9.04327 48.7572 38.3003 37.2787 44.4843 35.0603C50.6671 32.8427 52.812 32.7619 58.0737 34.69C63.3358 36.6173 90.8155 47.5552 96.0151 49.4595C101.217 51.3662 101.416 52.9361 96.08 55.7173Z" fill="#C6302B"/>
<path d="M96.082 49.4101C90.7453 52.1922 63.1 63.5586 57.2145 66.6281C51.3289 69.6957 48.0594 69.666 43.4098 67.4433C38.7602 65.2218 9.34102 53.3371 4.04141 50.8039C1.39297 49.5383 0 48.4711 0 47.4613V37.3523C0 37.3523 38.3008 29.0148 44.484 26.7965C50.6668 24.5781 52.8121 24.4976 58.0738 26.4254C63.3367 28.3531 94.8 34.0285 100 35.9336L99.9977 45.8996C99.9984 46.8984 98.7984 47.9945 96.082 49.4101Z" fill="#912626"/>
<path d="M96.08 39.3622C90.7437 42.1434 63.0991 53.5098 57.2136 56.579C51.3284 59.6469 48.0589 59.6169 43.4097 57.3942C38.7601 55.1731 9.34171 43.288 4.04249 40.7559C-1.25673 38.2235 -1.36767 36.4798 3.8378 34.4407C9.04327 32.4028 38.3007 20.9235 44.4843 18.7055C50.6671 16.4876 52.812 16.4071 58.0737 18.3348C63.3358 20.2622 90.8155 31.1993 96.0151 33.1044C101.217 35.0106 101.416 36.5809 96.08 39.3622Z" fill="#C6302B"/>
<path d="M96.082 32.4487C90.7453 35.2299 63.1 46.5971 57.2145 49.6667C51.3289 52.7346 48.0594 52.7046 43.4098 50.4819C38.7602 48.2604 9.34102 36.3752 4.04141 33.8432C1.39297 32.5764 0 31.5088 0 30.5002V20.3908C0 20.3908 38.3008 12.0537 44.484 9.83575C50.6668 7.617 52.8121 7.53731 58.0738 9.46466C63.3367 11.3924 94.8 17.0678 100 18.9729L99.9977 28.9385C99.9984 29.9366 98.7984 31.0327 96.082 32.4487Z" fill="#912626"/>
<path d="M96.0798 22.4008C90.7435 25.182 63.0989 36.5492 57.2134 39.6172C51.3282 42.6852 48.0587 42.6551 43.4095 40.4336C38.7603 38.211 9.34151 26.3266 4.04269 23.7941C-1.25692 21.2621 -1.36747 19.518 3.83761 17.4793C9.04308 15.441 38.3005 3.96328 44.4841 1.74452C50.6669 -0.473837 52.8118 -0.553524 58.0735 1.37421C63.3357 3.30195 90.8153 14.2391 96.0149 16.1441C101.217 18.0488 101.416 19.6195 96.0798 22.4008Z" fill="#C6302B"/>
<path d="M62.2202 12.5674L53.6225 13.4599L51.6979 18.0912L48.5893 12.9232L38.6616 12.031L46.0694 9.35956L43.8467 5.25879L50.7823 7.97128L57.3206 5.83066L55.5534 10.0709L62.2202 12.5674V12.5674ZM51.1846 35.0353L35.1389 28.3802L58.1311 24.8509L51.1846 35.0353V35.0353ZM28.9385 15.1416C35.7256 15.1416 41.2276 17.2744 41.2276 19.9049C41.2276 22.5361 35.7256 24.6685 28.9385 24.6685C22.1514 24.6685 16.6494 22.5357 16.6494 19.9049C16.6494 17.2744 22.1514 15.1416 28.9385 15.1416Z" fill="white"/>
<path d="M72.3809 13.8334L85.9887 19.2108L72.3926 24.583L72.3809 13.833" fill="#621B1C"/>
<path d="M57.3262 19.7886L72.3809 13.8335L72.3926 24.5832L70.9164 25.1605L57.3262 19.7886Z" fill="#9A2928"/>
</g>
<defs>
<clipPath id="clip0_790_3304">
<rect width="100" height="85.3855" fill="white"/>
</clipPath>
</defs>
</svg>
