<svg width="100" height="95" viewBox="0 0 100 95" fill="none" xmlns="http://www.w3.org/2000/svg">
<g clip-path="url(#clip0_790_3315)">
<path d="M69.2895 66.3019C72.9798 65.9199 75.7794 62.7387 75.652 58.9207C75.5251 55.1031 72.3434 52.0488 68.5258 52.0488H68.2715C64.3262 52.1762 61.2723 55.4848 61.3997 59.4297C61.527 61.3387 62.2903 62.993 63.4356 64.1383C59.109 72.6648 52.4918 78.9004 42.5661 84.118C35.8215 87.6812 28.8227 88.9539 21.8238 88.0633C16.0973 87.2996 11.6434 84.7547 8.84336 80.5547C4.77148 74.3191 4.38984 67.5742 7.82579 60.8297C10.2438 55.9937 14.0609 52.4305 16.4789 50.6488C15.9699 48.9945 15.2063 46.1949 14.8246 44.159C-3.62735 57.5211 -1.71837 75.5918 3.88086 84.118C8.08008 90.4812 16.6063 94.4262 26.0231 94.4262C28.568 94.4262 31.1129 94.1715 33.6582 93.5355C49.9469 90.3539 62.2907 80.682 69.2895 66.3019ZM91.6864 50.5219C82.0149 39.1957 67.7626 32.9602 51.4739 32.9602H49.4379C48.2926 30.6695 45.8747 29.1422 43.2024 29.1422H42.9477C39.0032 29.2695 35.9493 32.5781 36.0762 36.5234C36.2035 40.341 39.3848 43.3953 43.2024 43.3953H43.4567C46.2563 43.268 48.6743 41.4863 49.6922 39.0684H51.9829C61.6544 39.0684 70.8165 41.868 79.0884 47.3402C85.4509 51.5398 90.0321 57.0121 92.577 63.6293C94.7403 68.9742 94.613 74.1918 92.3224 78.6461C88.7595 85.3906 82.7786 89.0812 74.8887 89.0812C69.7985 89.0812 64.963 87.5539 62.4176 86.4086C61.018 87.6812 58.4727 89.7172 56.6911 90.9902C62.1633 93.5351 67.7626 94.9352 73.1071 94.9352C85.3235 94.9352 94.3587 88.1902 97.7946 81.4457C101.485 74.0645 101.23 61.3387 91.6864 50.5219ZM27.041 68.4648C27.1684 72.2828 30.3496 75.3367 34.1672 75.3367H34.4219C38.3668 75.2098 41.4207 71.9008 41.2934 67.9558C41.1664 64.1379 37.9848 61.084 34.1672 61.084H33.9129C33.6582 61.084 33.2762 61.084 33.0223 61.2109C27.8047 52.5574 25.6414 43.1406 26.4051 32.9598C26.9137 25.3242 29.459 18.7066 33.9129 13.2344C37.6032 8.52578 44.7293 6.23516 49.5653 6.1082C63.054 5.85352 68.7801 22.6516 69.1622 29.3965C70.8165 29.7781 73.6161 30.6691 75.5251 31.3055C73.9977 10.6898 61.2723 0 49.0563 0C37.6032 0 27.041 8.27187 22.8414 20.4887C16.9879 36.7777 20.8055 52.4305 27.9317 64.7746C27.2957 65.6652 26.9137 67.0652 27.041 68.4652V68.4648Z" fill="#764ABC"/>
</g>
<defs>
<clipPath id="clip0_790_3315">
<rect width="100" height="94.9352" fill="white"/>
</clipPath>
</defs>
</svg>
