<svg width="100" height="21" viewBox="0 0 100 21" fill="none" xmlns="http://www.w3.org/2000/svg">
<g clip-path="url(#clip0_790_3326)">
<path d="M0 20.6209H4.41878V13.6982H8.13058L11.6067 20.6209H16.4968L12.4315 12.6672C14.5819 11.6361 15.9665 9.51511 15.9665 6.86384C15.9665 2.68074 12.9323 0 8.39568 0H0V20.6209ZM8.04216 3.68229C10.1337 3.68229 11.4594 4.91958 11.4594 6.86384C11.4594 8.77866 10.1337 10.0159 8.04216 10.0159H4.41878V3.68229H8.04216ZM25.2823 20.7977C29.3181 20.7977 31.9399 18.441 32.4113 15.4952H28.3165C27.9631 16.9092 26.7847 17.6456 25.1055 17.6456C23.014 17.6456 21.6295 16.3495 21.541 14.199V13.9928H32.5291C32.6174 13.5215 32.6469 13.0207 32.6469 12.5788C32.588 8.13056 29.5243 5.30252 24.9877 5.30252C20.3038 5.30252 17.2107 8.36623 17.2107 13.0796C17.2107 17.7635 20.2449 20.7977 25.2823 20.7977ZM21.6295 11.2826C21.8651 9.48562 23.2202 8.39566 25.0172 8.39566C26.9025 8.39566 28.1692 9.4267 28.4638 11.2826H21.6295ZM34.0948 15.5835C34.2716 18.824 37.129 20.7977 41.3415 20.7977C45.4069 20.7977 48.2348 18.8829 48.2348 15.8781C48.2348 12.4609 45.3479 11.6655 41.8718 11.312C39.6919 11.0469 38.3957 10.9291 38.3957 9.78021C38.3957 8.80809 39.4562 8.2189 41.0764 8.2189C42.7556 8.2189 43.9045 8.95535 44.0223 10.1632H47.9992C47.793 7.07002 44.9944 5.2731 40.9292 5.2731C37.0406 5.2436 34.4188 7.21735 34.4188 10.2221C34.4188 13.3447 37.1584 14.1401 40.6935 14.5525C43.1385 14.8765 44.1696 14.9649 44.1696 16.2022C44.1696 17.2627 43.1091 17.8224 41.371 17.8224C39.3384 17.8224 38.1895 16.9092 38.0422 15.5835H34.0948ZM57.9053 20.7977C61.9411 20.7977 64.5629 18.441 65.0343 15.4952H60.9395C60.586 16.9092 59.4077 17.6456 57.7286 17.6456C55.637 17.6456 54.2524 16.3495 54.1641 14.199V13.9928H65.1521C65.2405 13.5215 65.27 13.0207 65.27 12.5788C65.211 8.13056 62.1473 5.30252 57.6107 5.30252C52.9268 5.30252 49.8336 8.36623 49.8336 13.0796C49.8336 17.7635 52.8679 20.7977 57.9053 20.7977ZM54.2524 11.2826C54.4881 9.48562 55.8432 8.39566 57.6401 8.39566C59.5255 8.39566 60.7923 9.4267 61.0868 11.2826H54.2524ZM76.23 5.30252C73.9032 5.30252 72.5182 6.1863 71.5464 7.36461L71.1632 5.47928H67.5398V20.6209H71.6932V12.8733C71.6932 10.2516 72.9307 8.71974 75.0809 8.71974C77.1726 8.71974 78.1451 10.0748 78.1451 12.6377V20.6209H82.2986V12.2253C82.2986 7.04059 79.5001 5.30252 76.23 5.30252ZM95.8465 7.36461C94.874 6.12738 93.3715 5.30252 91.2804 5.30252C87.2445 5.30252 84.2693 8.33674 84.2693 13.0207C84.2693 17.8224 87.2445 20.7977 91.3097 20.7977C93.4897 20.7977 94.9623 19.8256 95.964 18.5294L96.3765 20.6209H100V0H95.8465V7.36461ZM92.223 17.41C89.9546 17.41 88.5112 15.6425 88.5112 13.0501C88.5112 10.4577 89.9546 8.69025 92.223 8.69025C94.4914 8.69025 95.9049 10.4872 95.9049 13.0796C95.9049 15.6425 94.4914 17.41 92.223 17.41Z" fill="black"/>
</g>
<defs>
<clipPath id="clip0_790_3326">
<rect width="100" height="20.7977" fill="white"/>
</clipPath>
</defs>
</svg>
