<svg width="100" height="100" viewBox="0 0 100 100" fill="none" xmlns="http://www.w3.org/2000/svg">
<g clip-path="url(#clip0_790_3479)">
<path d="M22.2179 0H77.5869C80.2812 0 82.8974 0.429688 85.4354 1.32812C89.1059 2.65625 92.4249 5 94.9239 8.04688C97.462 11.0938 99.141 14.8438 99.7267 18.75C99.961 20.1953 100 21.6406 100 23.0859V77.1094C100 78.8281 99.922 80.5859 99.5705 82.2656C98.7896 86.1328 96.9544 89.7656 94.2992 92.6953C91.683 95.625 88.2468 97.8125 84.5374 98.9844C82.2726 99.6875 79.9298 100 77.5479 100C76.4936 100 22.0618 100 21.2418 99.9609C17.2589 99.7656 13.3152 98.4766 9.99616 96.25C6.75524 94.0625 4.10002 91.0156 2.38195 87.5C0.89815 84.4922 0.156253 81.1328 0.156253 77.7734V22.2266C0.0781581 18.9062 0.781008 15.625 2.22576 12.6563C3.90479 9.14063 6.52095 6.05469 9.76188 3.86719C13.0809 1.60156 16.9856 0.273438 20.9684 0.078125C21.3589 0 21.7884 0 22.2179 0Z" fill="url(#paint0_linear_790_3479)"/>
<path d="M84.342 81.7969C83.9905 81.25 83.6001 80.7031 83.1705 80.1953C82.1944 79.0234 81.062 78.0078 79.8125 77.1484C78.2506 76.0938 76.4154 75.4297 74.5411 75.3516C73.2135 75.2734 71.8859 75.5078 70.6364 75.9766C69.3869 76.4062 68.1764 77.0312 67.005 77.6562C65.6384 78.3594 64.2717 79.0625 62.8269 79.6484C61.1089 80.3516 59.3127 80.8984 57.4775 81.2891C55.1737 81.7188 52.8309 81.875 50.5271 81.8359C46.349 81.7578 42.171 81.1328 38.1882 79.9609C34.6739 78.9062 31.3159 77.4609 28.153 75.625C25.3807 74.0234 22.8036 72.1875 20.3826 70.1172C18.3912 68.3984 16.556 66.5625 14.8379 64.6094C13.6665 63.2422 12.5342 61.7969 11.4799 60.3125C11.0504 59.7266 10.6599 59.1016 10.3085 58.4766L0 47.3438V22.1484C0 9.92188 9.87894 0 22.1007 0H41.8196L56.4232 14.8438C89.379 37.2656 78.7192 61.9922 78.7192 61.9922C78.7192 61.9922 88.0905 72.5391 84.342 81.7969Z" fill="url(#paint1_linear_790_3479)"/>
<path d="M56.5014 14.8438C89.4571 37.2656 78.7973 61.9922 78.7973 61.9922C78.7973 61.9922 88.1686 72.5781 84.381 81.8359C84.381 81.8359 80.5154 75.3516 74.0335 75.3516C67.786 75.3516 64.1155 81.8359 51.5424 81.8359C23.5456 81.8359 10.3086 58.4375 10.3086 58.4375C35.533 75.0391 52.7528 63.2812 52.7528 63.2812C41.3901 56.6797 17.2199 25.1172 17.2199 25.1172C38.2663 43.0469 47.3643 47.7734 47.3643 47.7734C41.9368 43.2813 26.7084 21.3281 26.7084 21.3281C38.8911 33.6719 63.1003 50.8984 63.1003 50.8984C69.9726 31.8359 56.5014 14.8438 56.5014 14.8438Z" fill="white"/>
</g>
<defs>
<linearGradient id="paint0_linear_790_3479" x1="59.4655" y1="-3.56836" x2="40.5652" y2="103.578" gradientUnits="userSpaceOnUse">
<stop stop-color="#FAAE42"/>
<stop offset="1" stop-color="#EF3E31"/>
</linearGradient>
<linearGradient id="paint1_linear_790_3479" x1="51.0003" y1="1.61563" x2="37.1675" y2="80.0345" gradientUnits="userSpaceOnUse">
<stop stop-color="#E39F3A"/>
<stop offset="1" stop-color="#D33929"/>
</linearGradient>
<clipPath id="clip0_790_3479">
<rect width="100" height="100" fill="white"/>
</clipPath>
</defs>
</svg>
