<svg width="100" height="100" viewBox="0 0 100 100" fill="none" xmlns="http://www.w3.org/2000/svg">
<path d="M50 20C36.6663 20 28.3331 26.665 24.9994 39.9937C30 33.3287 35.8334 30.8303 42.4997 32.4959C46.3036 33.4463 49.0221 36.206 52.032 39.2597C56.9339 44.234 62.6072 49.9912 75.0006 49.9912C88.3331 49.9912 96.6675 43.3262 100 29.9962C95.0006 36.6612 89.1672 39.1609 82.4997 37.4953C78.697 36.5449 75.9785 33.7851 72.9686 30.7315C68.0668 25.7571 62.3921 20 50 20V20ZM24.9994 49.9912C11.6669 49.9912 3.3325 56.6562 0 69.9862C4.99937 63.3212 10.8328 60.8215 17.5003 62.4884C21.303 63.44 24.0215 66.1985 27.0314 69.2509C31.9332 74.2252 37.6079 79.9836 50 79.9836C63.3338 79.9836 71.6669 73.3187 75.0006 59.9887C70 66.6537 64.1666 69.1534 57.5003 67.4865C53.6964 66.5374 50.9779 63.7763 47.968 60.724C43.0662 55.7496 37.3928 49.9912 24.9994 49.9912V49.9912Z" fill="#06B6D4"/>
</svg>
