<svg xmlns="http://www.w3.org/2000/svg" xmlns:xlink="http://www.w3.org/1999/xlink" width="50" zoomAndPan="magnify" viewBox="0 0 37.5 37.499999" height="50" preserveAspectRatio="xMidYMid meet" version="1.2"><defs/><g id="e0199c5a27"><g style="fill:#000000;fill-opacity:1;"><g transform="translate(8.540404, 8.11678)"><path style="stroke:none" d="M 0.25 0.015625 C 0.207031 0.015625 0.171875 0.0078125 0.140625 0 C 0.117188 -0.0078125 0.0976562 -0.0195312 0.078125 -0.03125 C 0.0546875 -0.0507812 0.0390625 -0.0703125 0.03125 -0.09375 L 0.078125 -0.140625 L 0.09375 -0.140625 C 0.113281 -0.117188 0.132812 -0.0976562 0.15625 -0.078125 C 0.175781 -0.0664062 0.207031 -0.0625 0.25 -0.0625 C 0.289062 -0.0625 0.320312 -0.0664062 0.34375 -0.078125 C 0.363281 -0.0976562 0.375 -0.125 0.375 -0.15625 C 0.375 -0.175781 0.363281 -0.191406 0.34375 -0.203125 C 0.332031 -0.210938 0.3125 -0.222656 0.28125 -0.234375 L 0.203125 -0.25 C 0.148438 -0.257812 0.113281 -0.273438 0.09375 -0.296875 C 0.0703125 -0.328125 0.0625 -0.363281 0.0625 -0.40625 C 0.0625 -0.4375 0.0664062 -0.460938 0.078125 -0.484375 C 0.0976562 -0.503906 0.117188 -0.519531 0.140625 -0.53125 C 0.171875 -0.539062 0.207031 -0.546875 0.25 -0.546875 C 0.289062 -0.546875 0.328125 -0.535156 0.359375 -0.515625 C 0.390625 -0.503906 0.410156 -0.488281 0.421875 -0.46875 L 0.390625 -0.421875 L 0.375 -0.421875 C 0.351562 -0.441406 0.332031 -0.457031 0.3125 -0.46875 C 0.289062 -0.476562 0.269531 -0.484375 0.25 -0.484375 C 0.207031 -0.484375 0.175781 -0.472656 0.15625 -0.453125 C 0.144531 -0.441406 0.140625 -0.425781 0.140625 -0.40625 C 0.140625 -0.382812 0.144531 -0.363281 0.15625 -0.34375 C 0.164062 -0.332031 0.1875 -0.328125 0.21875 -0.328125 L 0.3125 -0.296875 C 0.363281 -0.285156 0.398438 -0.265625 0.421875 -0.234375 C 0.441406 -0.210938 0.453125 -0.1875 0.453125 -0.15625 C 0.453125 -0.125 0.441406 -0.09375 0.421875 -0.0625 C 0.410156 -0.0390625 0.390625 -0.0195312 0.359375 0 C 0.328125 0.0078125 0.289062 0.015625 0.25 0.015625 Z M 0.25 0.015625 "/></g><g transform="translate(9.0319, 8.11678)"><path style="stroke:none" d="M 0.09375 0 L 0.09375 -0.734375 L 0.171875 -0.734375 L 0.171875 -0.46875 L 0.1875 -0.453125 C 0.21875 -0.515625 0.269531 -0.546875 0.34375 -0.546875 C 0.414062 -0.546875 0.460938 -0.53125 0.484375 -0.5 C 0.515625 -0.46875 0.53125 -0.414062 0.53125 -0.34375 L 0.53125 0 L 0.453125 0 L 0.453125 -0.34375 C 0.453125 -0.375 0.445312 -0.398438 0.4375 -0.421875 C 0.4375 -0.441406 0.425781 -0.457031 0.40625 -0.46875 C 0.382812 -0.476562 0.359375 -0.484375 0.328125 -0.484375 C 0.285156 -0.484375 0.25 -0.46875 0.21875 -0.4375 C 0.1875 -0.40625 0.171875 -0.351562 0.171875 -0.28125 L 0.171875 0 Z M 0.09375 0 "/></g><g transform="translate(9.643861, 8.11678)"><path style="stroke:none" d="M 0.265625 0.015625 C 0.203125 0.015625 0.15625 0 0.125 -0.03125 C 0.09375 -0.0703125 0.078125 -0.125 0.078125 -0.1875 L 0.078125 -0.53125 L 0.171875 -0.53125 L 0.171875 -0.1875 C 0.171875 -0.101562 0.207031 -0.0625 0.28125 -0.0625 C 0.332031 -0.0625 0.367188 -0.078125 0.390625 -0.109375 C 0.421875 -0.140625 0.4375 -0.191406 0.4375 -0.265625 L 0.4375 -0.53125 L 0.515625 -0.53125 L 0.515625 0 L 0.4375 0 L 0.4375 -0.09375 C 0.414062 -0.0507812 0.390625 -0.0195312 0.359375 0 C 0.335938 0.0078125 0.304688 0.015625 0.265625 0.015625 Z M 0.265625 0.015625 "/></g><g transform="translate(10.24763, 8.11678)"><path style="stroke:none" d="M 0.359375 0.015625 C 0.316406 0.015625 0.28125 0.0078125 0.25 0 C 0.21875 -0.0195312 0.195312 -0.046875 0.1875 -0.078125 L 0.171875 -0.078125 L 0.171875 0 L 0.09375 0 L 0.09375 -0.734375 L 0.171875 -0.734375 L 0.171875 -0.453125 L 0.1875 -0.453125 C 0.226562 -0.515625 0.285156 -0.546875 0.359375 -0.546875 C 0.398438 -0.546875 0.4375 -0.535156 0.46875 -0.515625 C 0.507812 -0.492188 0.535156 -0.460938 0.546875 -0.421875 C 0.566406 -0.378906 0.578125 -0.328125 0.578125 -0.265625 C 0.578125 -0.203125 0.566406 -0.148438 0.546875 -0.109375 C 0.535156 -0.0664062 0.507812 -0.0351562 0.46875 -0.015625 C 0.4375 0.00390625 0.398438 0.015625 0.359375 0.015625 Z M 0.34375 -0.0625 C 0.445312 -0.0625 0.5 -0.128906 0.5 -0.265625 C 0.5 -0.335938 0.484375 -0.390625 0.453125 -0.421875 C 0.429688 -0.460938 0.394531 -0.484375 0.34375 -0.484375 C 0.289062 -0.484375 0.25 -0.460938 0.21875 -0.421875 C 0.1875 -0.390625 0.171875 -0.335938 0.171875 -0.265625 C 0.171875 -0.203125 0.1875 -0.148438 0.21875 -0.109375 C 0.25 -0.078125 0.289062 -0.0625 0.34375 -0.0625 Z M 0.34375 -0.0625 "/></g><g transform="translate(10.881756, 8.11678)"><path style="stroke:none" d="M 0.09375 0 L 0.09375 -0.734375 L 0.171875 -0.734375 L 0.171875 -0.46875 L 0.1875 -0.453125 C 0.21875 -0.515625 0.269531 -0.546875 0.34375 -0.546875 C 0.414062 -0.546875 0.460938 -0.53125 0.484375 -0.5 C 0.515625 -0.46875 0.53125 -0.414062 0.53125 -0.34375 L 0.53125 0 L 0.453125 0 L 0.453125 -0.34375 C 0.453125 -0.375 0.445312 -0.398438 0.4375 -0.421875 C 0.4375 -0.441406 0.425781 -0.457031 0.40625 -0.46875 C 0.382812 -0.476562 0.359375 -0.484375 0.328125 -0.484375 C 0.285156 -0.484375 0.25 -0.46875 0.21875 -0.4375 C 0.1875 -0.40625 0.171875 -0.351562 0.171875 -0.28125 L 0.171875 0 Z M 0.09375 0 "/></g><g transform="translate(11.493717, 8.11678)"><path style="stroke:none" d="M 0.21875 0.015625 C 0.164062 0.015625 0.125 0 0.09375 -0.03125 C 0.0625 -0.0625 0.046875 -0.101562 0.046875 -0.15625 C 0.046875 -0.1875 0.0507812 -0.210938 0.0625 -0.234375 C 0.0820312 -0.253906 0.101562 -0.269531 0.125 -0.28125 C 0.15625 -0.300781 0.195312 -0.3125 0.25 -0.3125 C 0.28125 -0.320312 0.304688 -0.328125 0.328125 -0.328125 C 0.347656 -0.335938 0.363281 -0.347656 0.375 -0.359375 C 0.382812 -0.367188 0.390625 -0.382812 0.390625 -0.40625 C 0.390625 -0.425781 0.378906 -0.441406 0.359375 -0.453125 C 0.335938 -0.472656 0.3125 -0.484375 0.28125 -0.484375 C 0.238281 -0.484375 0.207031 -0.472656 0.1875 -0.453125 C 0.164062 -0.441406 0.144531 -0.425781 0.125 -0.40625 L 0.109375 -0.40625 L 0.078125 -0.453125 C 0.0976562 -0.484375 0.125 -0.503906 0.15625 -0.515625 C 0.1875 -0.535156 0.226562 -0.546875 0.28125 -0.546875 C 0.34375 -0.546875 0.390625 -0.53125 0.421875 -0.5 C 0.453125 -0.476562 0.46875 -0.441406 0.46875 -0.390625 L 0.46875 -0.109375 C 0.46875 -0.078125 0.476562 -0.0625 0.5 -0.0625 C 0.507812 -0.0625 0.519531 -0.0625 0.53125 -0.0625 L 0.546875 -0.015625 C 0.535156 -0.00390625 0.523438 0 0.515625 0 C 0.503906 0 0.492188 0 0.484375 0 C 0.453125 0 0.429688 -0.00390625 0.421875 -0.015625 C 0.410156 -0.0234375 0.398438 -0.046875 0.390625 -0.078125 L 0.375 -0.078125 C 0.363281 -0.046875 0.34375 -0.0195312 0.3125 0 C 0.289062 0.0078125 0.257812 0.015625 0.21875 0.015625 Z M 0.234375 -0.046875 C 0.265625 -0.046875 0.289062 -0.0507812 0.3125 -0.0625 C 0.332031 -0.0820312 0.347656 -0.101562 0.359375 -0.125 C 0.378906 -0.15625 0.390625 -0.1875 0.390625 -0.21875 L 0.390625 -0.28125 L 0.375 -0.296875 C 0.363281 -0.285156 0.347656 -0.273438 0.328125 -0.265625 C 0.316406 -0.265625 0.296875 -0.257812 0.265625 -0.25 C 0.234375 -0.25 0.207031 -0.242188 0.1875 -0.234375 C 0.164062 -0.222656 0.148438 -0.210938 0.140625 -0.203125 C 0.140625 -0.191406 0.140625 -0.175781 0.140625 -0.15625 C 0.140625 -0.125 0.144531 -0.0976562 0.15625 -0.078125 C 0.175781 -0.0546875 0.203125 -0.046875 0.234375 -0.046875 Z M 0.234375 -0.046875 "/></g><g transform="translate(12.043518, 8.11678)"><path style="stroke:none" d="M 0.09375 0 L 0.09375 -0.53125 L 0.171875 -0.53125 L 0.171875 -0.453125 L 0.1875 -0.453125 C 0.195312 -0.484375 0.210938 -0.503906 0.234375 -0.515625 C 0.265625 -0.535156 0.300781 -0.546875 0.34375 -0.546875 C 0.382812 -0.546875 0.414062 -0.535156 0.4375 -0.515625 C 0.457031 -0.503906 0.472656 -0.484375 0.484375 -0.453125 L 0.5 -0.453125 C 0.519531 -0.484375 0.539062 -0.503906 0.5625 -0.515625 C 0.582031 -0.535156 0.613281 -0.546875 0.65625 -0.546875 C 0.707031 -0.546875 0.742188 -0.53125 0.765625 -0.5 C 0.796875 -0.46875 0.8125 -0.425781 0.8125 -0.375 L 0.8125 0 L 0.734375 0 L 0.734375 -0.359375 C 0.734375 -0.398438 0.722656 -0.429688 0.703125 -0.453125 C 0.691406 -0.472656 0.671875 -0.484375 0.640625 -0.484375 C 0.597656 -0.484375 0.5625 -0.46875 0.53125 -0.4375 C 0.507812 -0.40625 0.5 -0.351562 0.5 -0.28125 L 0.5 0 L 0.421875 0 L 0.421875 -0.359375 C 0.421875 -0.398438 0.410156 -0.429688 0.390625 -0.453125 C 0.378906 -0.472656 0.351562 -0.484375 0.3125 -0.484375 C 0.269531 -0.484375 0.234375 -0.46875 0.203125 -0.4375 C 0.179688 -0.40625 0.171875 -0.351562 0.171875 -0.28125 L 0.171875 0 Z M 0.09375 0 "/></g><g transform="translate(12.949412, 8.11678)"><path style="stroke:none" d="M 0.140625 -0.625 C 0.117188 -0.625 0.101562 -0.628906 0.09375 -0.640625 C 0.0820312 -0.648438 0.078125 -0.664062 0.078125 -0.6875 C 0.078125 -0.695312 0.0820312 -0.707031 0.09375 -0.71875 C 0.101562 -0.726562 0.117188 -0.734375 0.140625 -0.734375 C 0.148438 -0.734375 0.160156 -0.726562 0.171875 -0.71875 C 0.179688 -0.707031 0.1875 -0.695312 0.1875 -0.6875 C 0.1875 -0.664062 0.179688 -0.648438 0.171875 -0.640625 C 0.160156 -0.628906 0.148438 -0.625 0.140625 -0.625 Z M 0.03125 0.234375 C 0.0078125 0.234375 -0.00390625 0.226562 -0.015625 0.21875 C -0.0234375 0.21875 -0.0390625 0.21875 -0.0625 0.21875 L -0.046875 0.15625 L -0.03125 0.15625 C -0.0195312 0.15625 -0.00390625 0.15625 0.015625 0.15625 C 0.0351562 0.15625 0.0507812 0.144531 0.0625 0.125 C 0.0820312 0.113281 0.09375 0.09375 0.09375 0.0625 L 0.09375 -0.53125 L 0.171875 -0.53125 L 0.171875 0.0625 C 0.171875 0.113281 0.15625 0.15625 0.125 0.1875 C 0.101562 0.21875 0.0703125 0.234375 0.03125 0.234375 Z M 0.03125 0.234375 "/></g><g transform="translate(13.212989, 8.11678)"><path style="stroke:none" d="M 0.21875 0.015625 C 0.164062 0.015625 0.125 0 0.09375 -0.03125 C 0.0625 -0.0625 0.046875 -0.101562 0.046875 -0.15625 C 0.046875 -0.1875 0.0507812 -0.210938 0.0625 -0.234375 C 0.0820312 -0.253906 0.101562 -0.269531 0.125 -0.28125 C 0.15625 -0.300781 0.195312 -0.3125 0.25 -0.3125 C 0.28125 -0.320312 0.304688 -0.328125 0.328125 -0.328125 C 0.347656 -0.335938 0.363281 -0.347656 0.375 -0.359375 C 0.382812 -0.367188 0.390625 -0.382812 0.390625 -0.40625 C 0.390625 -0.425781 0.378906 -0.441406 0.359375 -0.453125 C 0.335938 -0.472656 0.3125 -0.484375 0.28125 -0.484375 C 0.238281 -0.484375 0.207031 -0.472656 0.1875 -0.453125 C 0.164062 -0.441406 0.144531 -0.425781 0.125 -0.40625 L 0.109375 -0.40625 L 0.078125 -0.453125 C 0.0976562 -0.484375 0.125 -0.503906 0.15625 -0.515625 C 0.1875 -0.535156 0.226562 -0.546875 0.28125 -0.546875 C 0.34375 -0.546875 0.390625 -0.53125 0.421875 -0.5 C 0.453125 -0.476562 0.46875 -0.441406 0.46875 -0.390625 L 0.46875 -0.109375 C 0.46875 -0.078125 0.476562 -0.0625 0.5 -0.0625 C 0.507812 -0.0625 0.519531 -0.0625 0.53125 -0.0625 L 0.546875 -0.015625 C 0.535156 -0.00390625 0.523438 0 0.515625 0 C 0.503906 0 0.492188 0 0.484375 0 C 0.453125 0 0.429688 -0.00390625 0.421875 -0.015625 C 0.410156 -0.0234375 0.398438 -0.046875 0.390625 -0.078125 L 0.375 -0.078125 C 0.363281 -0.046875 0.34375 -0.0195312 0.3125 0 C 0.289062 0.0078125 0.257812 0.015625 0.21875 0.015625 Z M 0.234375 -0.046875 C 0.265625 -0.046875 0.289062 -0.0507812 0.3125 -0.0625 C 0.332031 -0.0820312 0.347656 -0.101562 0.359375 -0.125 C 0.378906 -0.15625 0.390625 -0.1875 0.390625 -0.21875 L 0.390625 -0.28125 L 0.375 -0.296875 C 0.363281 -0.285156 0.347656 -0.273438 0.328125 -0.265625 C 0.316406 -0.265625 0.296875 -0.257812 0.265625 -0.25 C 0.234375 -0.25 0.207031 -0.242188 0.1875 -0.234375 C 0.164062 -0.222656 0.148438 -0.210938 0.140625 -0.203125 C 0.140625 -0.191406 0.140625 -0.175781 0.140625 -0.15625 C 0.140625 -0.125 0.144531 -0.0976562 0.15625 -0.078125 C 0.175781 -0.0546875 0.203125 -0.046875 0.234375 -0.046875 Z M 0.234375 -0.046875 "/></g><g transform="translate(13.76279, 8.11678)"><path style="stroke:none" d="M 0.09375 0 L 0.09375 -0.53125 L 0.171875 -0.53125 L 0.171875 -0.453125 L 0.1875 -0.453125 C 0.195312 -0.484375 0.21875 -0.503906 0.25 -0.515625 C 0.28125 -0.535156 0.3125 -0.546875 0.34375 -0.546875 C 0.414062 -0.546875 0.460938 -0.53125 0.484375 -0.5 C 0.515625 -0.46875 0.53125 -0.414062 0.53125 -0.34375 L 0.53125 0 L 0.453125 0 L 0.453125 -0.34375 C 0.453125 -0.375 0.445312 -0.398438 0.4375 -0.421875 C 0.4375 -0.441406 0.425781 -0.457031 0.40625 -0.46875 C 0.382812 -0.476562 0.359375 -0.484375 0.328125 -0.484375 C 0.285156 -0.484375 0.25 -0.46875 0.21875 -0.4375 C 0.1875 -0.40625 0.171875 -0.351562 0.171875 -0.28125 L 0.171875 0 Z M 0.09375 0 "/></g><g transform="translate(14.374751, 8.11678)"><path style="stroke:none" d="M 0.28125 0.234375 C 0.195312 0.234375 0.132812 0.21875 0.09375 0.1875 C 0.0507812 0.15625 0.03125 0.117188 0.03125 0.078125 C 0.03125 0.046875 0.0390625 0.0195312 0.0625 0 C 0.0820312 -0.0195312 0.109375 -0.03125 0.140625 -0.03125 L 0.140625 -0.046875 C 0.117188 -0.0546875 0.101562 -0.0664062 0.09375 -0.078125 C 0.09375 -0.0859375 0.09375 -0.101562 0.09375 -0.125 C 0.09375 -0.144531 0.0976562 -0.160156 0.109375 -0.171875 C 0.117188 -0.191406 0.140625 -0.203125 0.171875 -0.203125 L 0.171875 -0.21875 C 0.109375 -0.25 0.078125 -0.300781 0.078125 -0.375 C 0.078125 -0.40625 0.0820312 -0.429688 0.09375 -0.453125 C 0.113281 -0.484375 0.140625 -0.503906 0.171875 -0.515625 C 0.203125 -0.535156 0.238281 -0.546875 0.28125 -0.546875 C 0.320312 -0.546875 0.359375 -0.535156 0.390625 -0.515625 C 0.398438 -0.523438 0.40625 -0.535156 0.40625 -0.546875 C 0.414062 -0.566406 0.421875 -0.582031 0.421875 -0.59375 L 0.4375 -0.59375 L 0.5 -0.578125 C 0.5 -0.566406 0.488281 -0.550781 0.46875 -0.53125 C 0.457031 -0.507812 0.441406 -0.492188 0.421875 -0.484375 L 0.421875 -0.46875 C 0.441406 -0.457031 0.453125 -0.441406 0.453125 -0.421875 C 0.460938 -0.398438 0.46875 -0.378906 0.46875 -0.359375 C 0.46875 -0.328125 0.457031 -0.296875 0.4375 -0.265625 C 0.425781 -0.242188 0.40625 -0.222656 0.375 -0.203125 C 0.34375 -0.191406 0.3125 -0.1875 0.28125 -0.1875 C 0.269531 -0.1875 0.257812 -0.1875 0.25 -0.1875 C 0.238281 -0.1875 0.226562 -0.1875 0.21875 -0.1875 C 0.207031 -0.1875 0.195312 -0.179688 0.1875 -0.171875 C 0.175781 -0.160156 0.171875 -0.148438 0.171875 -0.140625 C 0.171875 -0.117188 0.175781 -0.101562 0.1875 -0.09375 C 0.195312 -0.09375 0.210938 -0.09375 0.234375 -0.09375 L 0.359375 -0.078125 C 0.421875 -0.078125 0.460938 -0.0664062 0.484375 -0.046875 C 0.515625 -0.0234375 0.53125 0.0078125 0.53125 0.0625 C 0.53125 0.09375 0.519531 0.117188 0.5 0.140625 C 0.476562 0.171875 0.445312 0.191406 0.40625 0.203125 C 0.375 0.222656 0.332031 0.234375 0.28125 0.234375 Z M 0.28125 -0.25 C 0.3125 -0.25 0.335938 -0.257812 0.359375 -0.28125 C 0.378906 -0.300781 0.390625 -0.328125 0.390625 -0.359375 C 0.390625 -0.398438 0.378906 -0.429688 0.359375 -0.453125 C 0.335938 -0.472656 0.3125 -0.484375 0.28125 -0.484375 C 0.238281 -0.484375 0.207031 -0.472656 0.1875 -0.453125 C 0.164062 -0.429688 0.15625 -0.398438 0.15625 -0.359375 C 0.15625 -0.328125 0.164062 -0.300781 0.1875 -0.28125 C 0.207031 -0.257812 0.238281 -0.25 0.28125 -0.25 Z M 0.28125 0.15625 C 0.320312 0.15625 0.351562 0.148438 0.375 0.140625 C 0.394531 0.140625 0.410156 0.128906 0.421875 0.109375 C 0.441406 0.0976562 0.453125 0.0820312 0.453125 0.0625 C 0.453125 0.0507812 0.445312 0.0390625 0.4375 0.03125 C 0.425781 0.0195312 0.414062 0.0078125 0.40625 0 C 0.394531 0 0.378906 0 0.359375 0 L 0.234375 -0.015625 L 0.21875 -0.015625 C 0.144531 -0.015625 0.109375 0.0078125 0.109375 0.0625 C 0.109375 0.125 0.164062 0.15625 0.28125 0.15625 Z M 0.28125 0.15625 "/></g><g transform="translate(14.919251, 8.11678)"><path style="stroke:none" d="M 0.140625 -0.625 C 0.117188 -0.625 0.101562 -0.628906 0.09375 -0.640625 C 0.0820312 -0.648438 0.078125 -0.664062 0.078125 -0.6875 C 0.078125 -0.695312 0.0820312 -0.707031 0.09375 -0.71875 C 0.101562 -0.726562 0.117188 -0.734375 0.140625 -0.734375 C 0.148438 -0.734375 0.160156 -0.726562 0.171875 -0.71875 C 0.179688 -0.707031 0.1875 -0.695312 0.1875 -0.6875 C 0.1875 -0.664062 0.179688 -0.648438 0.171875 -0.640625 C 0.160156 -0.628906 0.148438 -0.625 0.140625 -0.625 Z M 0.09375 0 L 0.09375 -0.53125 L 0.171875 -0.53125 L 0.171875 0 Z M 0.09375 0 "/></g><g transform="translate(15.182828, 8.11678)"><path style="stroke:none" d="M 0.09375 0 L 0.09375 -0.53125 L 0.171875 -0.53125 L 0.171875 -0.453125 L 0.1875 -0.453125 C 0.207031 -0.515625 0.253906 -0.546875 0.328125 -0.546875 C 0.359375 -0.546875 0.382812 -0.539062 0.40625 -0.53125 L 0.390625 -0.453125 L 0.375 -0.453125 C 0.351562 -0.460938 0.332031 -0.46875 0.3125 -0.46875 C 0.269531 -0.46875 0.234375 -0.453125 0.203125 -0.421875 C 0.179688 -0.390625 0.171875 -0.335938 0.171875 -0.265625 L 0.171875 0 Z M 0.09375 0 "/></g></g><g style="fill:#000000;fill-opacity:1;"><g transform="translate(15.488808, 8.11678)"><path style="stroke:none" d="M 0.125 0 C 0.113281 0 0.101562 -0.00390625 0.09375 -0.015625 C 0.0820312 -0.0234375 0.078125 -0.0351562 0.078125 -0.046875 C 0.078125 -0.0664062 0.0820312 -0.0820312 0.09375 -0.09375 C 0.101562 -0.101562 0.113281 -0.109375 0.125 -0.109375 C 0.144531 -0.109375 0.160156 -0.101562 0.171875 -0.09375 C 0.179688 -0.0820312 0.1875 -0.0664062 0.1875 -0.046875 C 0.1875 -0.0351562 0.179688 -0.0234375 0.171875 -0.015625 C 0.160156 -0.00390625 0.144531 0 0.125 0 Z M 0.125 0 "/></g><g transform="translate(15.74853, 8.11678)"><path style="stroke:none" d="M 0.140625 -0.625 C 0.117188 -0.625 0.101562 -0.628906 0.09375 -0.640625 C 0.0820312 -0.648438 0.078125 -0.664062 0.078125 -0.6875 C 0.078125 -0.695312 0.0820312 -0.707031 0.09375 -0.71875 C 0.101562 -0.726562 0.117188 -0.734375 0.140625 -0.734375 C 0.148438 -0.734375 0.160156 -0.726562 0.171875 -0.71875 C 0.179688 -0.707031 0.1875 -0.695312 0.1875 -0.6875 C 0.1875 -0.664062 0.179688 -0.648438 0.171875 -0.640625 C 0.160156 -0.628906 0.148438 -0.625 0.140625 -0.625 Z M 0.09375 0 L 0.09375 -0.53125 L 0.171875 -0.53125 L 0.171875 0 Z M 0.09375 0 "/></g><g transform="translate(16.012107, 8.11678)"><path style="stroke:none" d="M 0.09375 0 L 0.09375 -0.53125 L 0.171875 -0.53125 L 0.171875 -0.453125 L 0.1875 -0.453125 C 0.195312 -0.484375 0.21875 -0.503906 0.25 -0.515625 C 0.28125 -0.535156 0.3125 -0.546875 0.34375 -0.546875 C 0.414062 -0.546875 0.460938 -0.53125 0.484375 -0.5 C 0.515625 -0.46875 0.53125 -0.414062 0.53125 -0.34375 L 0.53125 0 L 0.453125 0 L 0.453125 -0.34375 C 0.453125 -0.375 0.445312 -0.398438 0.4375 -0.421875 C 0.4375 -0.441406 0.425781 -0.457031 0.40625 -0.46875 C 0.382812 -0.476562 0.359375 -0.484375 0.328125 -0.484375 C 0.285156 -0.484375 0.25 -0.46875 0.21875 -0.4375 C 0.1875 -0.40625 0.171875 -0.351562 0.171875 -0.28125 L 0.171875 0 Z M 0.09375 0 "/></g></g><path style=" stroke:none;fill-rule:nonzero;fill:#f49e12;fill-opacity:1;" d="M 30.421875 6.582031 C 23.839844 0 13.164062 0 6.582031 6.582031 C 0 13.164062 0 23.839844 6.582031 30.421875 C 13.164062 37.007812 23.839844 37.007812 30.421875 30.421875 C 37.007812 23.839844 37.007812 13.164062 30.421875 6.582031 Z M 28.394531 19.597656 L 22.871094 20.738281 C 21.796875 20.964844 20.964844 21.796875 20.746094 22.863281 L 19.597656 28.386719 C 19.382812 29.609375 17.632812 29.609375 17.414062 28.386719 L 16.207031 22.828125 C 15.976562 21.769531 15.148438 20.941406 14.082031 20.726562 L 8.609375 19.589844 C 7.386719 19.375 7.386719 17.625 8.609375 17.40625 L 14.121094 16.214844 C 15.171875 15.984375 15.992188 15.164062 16.214844 14.121094 L 17.40625 8.609375 C 17.625 7.386719 19.375 7.386719 19.589844 8.609375 L 20.726562 14.082031 C 20.949219 15.140625 21.769531 15.976562 22.828125 16.207031 L 28.386719 17.414062 C 29.617188 17.632812 29.617188 19.375 28.394531 19.597656 Z M 28.394531 19.597656 "/></g></svg>